{"glyphs":{"0":{"ha":840,"o":"m 420 -10 b 697 -10 830 108 830 351 b 830 593 697 710 420 710 b 142 710 10 594 10 351 b 10 107 142 -10 420 -10 m 420 210 b 297 210 270 276 270 351 b 270 425 296 490 420 490 b 544 490 570 424 570 351 b 570 277 543 210 420 210 "},"1":{"ha":700,"o":"m 480 220 l 480 700 l 220 700 b 220 600 123 600 20 600 l 20 380 b 93 380 147 380 223 447 l 221 220 l 20 220 l 20 0 l 680 0 l 680 220 "},"2":{"ha":814,"o":"m 804 490 b 804 664 663 710 422 710 b 184 710 20 664 20 425 l 280 425 b 280 490 340 490 432 490 b 519 490 544 485 544 455 b 544 357 10 382 10 120 l 10 0 l 794 0 l 794 220 l 411 220 b 461 298 804 263 804 490 "},"3":{"ha":814,"o":"m 705 350 b 768 383 804 431 804 500 b 804 664 663 710 417 710 b 174 710 10 664 10 435 l 270 435 b 270 490 330 490 427 490 b 519 490 544 490 544 454 b 544 410 519 410 327 410 l 327 290 b 519 290 544 290 544 246 b 544 210 519 210 427 210 b 330 210 270 210 270 265 l 10 265 b 10 36 174 -10 417 -10 b 663 -10 804 36 804 200 b 804 269 768 317 705 350 "},"4":{"ha":854,"o":"m 834 300 l 734 300 l 734 700 l 474 700 l 20 300 l 20 80 l 474 80 l 474 0 l 734 0 l 734 80 l 834 80 m 260 300 l 474 480 l 474 300 "},"5":{"ha":814,"o":"m 516 455 b 403 455 351 435 277 409 l 310 500 l 754 500 l 754 700 l 129 700 l 39 336 l 238 303 b 318 334 376 347 440 347 b 520 347 544 323 544 279 b 544 233 519 210 427 210 b 330 210 270 210 270 260 l 10 260 b 10 36 179 -10 422 -10 b 668 -10 804 56 804 230 b 804 368 697 455 516 455 "},"6":{"ha":840,"o":"m 506 455 b 423 455 345 443 286 403 b 302 486 349 510 442 510 b 572 510 674 487 773 468 l 773 668 b 688 686 572 710 398 710 b 192 710 20 623 20 333 b 20 107 152 -10 440 -10 b 687 -10 820 68 820 231 b 820 383 687 455 506 455 m 420 190 b 307 190 280 217 280 266 b 280 315 306 340 420 340 b 534 340 560 314 560 266 b 560 217 533 190 420 190 "},"7":{"ha":783,"o":"m 20 700 l 20 480 l 423 480 b 168 340 134 180 134 0 l 394 0 b 394 180 478 340 763 480 l 763 700 "},"8":{"ha":840,"o":"m 679 393 b 734 423 760 468 760 529 b 760 652 667 710 420 710 b 172 710 80 653 80 529 b 80 467 106 423 161 393 b 51 362 10 302 10 211 b 10 67 102 -10 420 -10 b 737 -10 830 68 830 211 b 830 302 789 362 679 393 m 420 540 b 518 540 540 524 540 495 b 540 466 519 450 420 450 b 321 450 300 466 300 495 b 300 524 322 540 420 540 m 420 180 b 307 180 270 206 270 246 b 270 285 306 310 420 310 b 534 310 570 284 570 246 b 570 207 533 180 420 180 "},"9":{"ha":820,"o":"m 390 710 b 143 710 10 632 10 469 b 10 317 143 245 324 245 b 407 245 485 257 544 297 b 528 214 481 190 388 190 b 258 190 156 213 57 232 l 57 32 b 142 14 258 -10 432 -10 b 638 -10 810 77 810 367 b 810 593 678 710 390 710 m 410 360 b 296 360 270 386 270 434 b 270 483 297 510 410 510 b 523 510 550 483 550 434 b 550 385 524 360 410 360 "},"A":{"ha":986,"o":"m 690 0 l 976 0 l 686 700 l 300 700 l 10 0 l 296 0 l 344 126 l 642 126 m 412 306 l 493 520 l 574 306 "},"Á":{"ha":986,"o":"m 687 980 l 298 900 l 298 760 l 687 840 m 690 0 l 976 0 l 686 700 l 300 700 l 10 0 l 296 0 l 344 126 l 642 126 m 412 306 l 493 520 l 574 306 "},"Ă":{"ha":986,"o":"m 493 750 b 617 750 720 790 720 970 l 600 970 b 600 900 567 870 493 870 b 419 870 386 900 386 970 l 266 970 b 266 790 369 750 493 750 m 690 0 l 976 0 l 686 700 l 300 700 l 10 0 l 296 0 l 344 126 l 642 126 m 412 306 l 493 520 l 574 306 "},"Â":{"ha":986,"o":"m 700 760 l 700 900 l 493 980 l 286 900 l 286 760 l 493 840 m 690 0 l 976 0 l 686 700 l 300 700 l 10 0 l 296 0 l 344 126 l 642 126 m 412 306 l 493 520 l 574 306 "},"Ä":{"ha":986,"o":"m 463 950 l 263 950 l 263 770 l 463 770 m 723 950 l 523 950 l 523 770 l 723 770 m 690 0 l 976 0 l 686 700 l 300 700 l 10 0 l 296 0 l 344 126 l 642 126 m 412 306 l 493 520 l 574 306 "},"À":{"ha":986,"o":"m 687 900 l 298 980 l 298 840 l 687 760 m 690 0 l 976 0 l 686 700 l 300 700 l 10 0 l 296 0 l 344 126 l 642 126 m 412 306 l 493 520 l 574 306 "},"Ā":{"ha":986,"o":"m 727 910 l 258 910 l 258 770 l 727 770 m 690 0 l 976 0 l 686 700 l 300 700 l 10 0 l 296 0 l 344 126 l 642 126 m 412 306 l 493 520 l 574 306 "},"Ą":{"ha":986,"o":"m 816 -52 b 816 -31 836 -17 857 0 l 976 0 l 686 700 l 300 700 l 10 0 l 296 0 l 344 126 l 642 126 l 690 0 l 750 0 b 699 -33 676 -72 676 -113 b 676 -211 777 -230 964 -230 l 964 -90 b 881 -90 816 -90 816 -52 m 412 306 l 493 520 l 574 306 "},"Å":{"ha":986,"o":"m 493 760 b 661 760 703 809 703 892 b 703 975 661 1024 493 1024 b 325 1024 283 975 283 892 b 283 809 325 760 493 760 m 493 934 b 541 934 583 932 583 892 b 583 852 541 850 493 850 b 445 850 403 852 403 892 b 403 932 445 934 493 934 m 690 0 l 976 0 l 686 700 l 300 700 l 10 0 l 296 0 l 344 126 l 642 126 m 412 306 l 493 520 l 574 306 "},"Ã":{"ha":986,"o":"m 433 830 b 516 830 540 760 643 760 b 750 760 783 870 783 970 l 603 970 b 603 930 590 910 553 910 b 470 910 446 980 343 980 b 236 980 203 870 203 770 l 383 770 b 383 810 396 830 433 830 m 690 0 l 976 0 l 686 700 l 300 700 l 10 0 l 296 0 l 344 126 l 642 126 m 412 306 l 493 520 l 574 306 "},"Æ":{"ha":1334,"o":"m 1324 500 l 1324 700 l 300 700 l 10 0 l 296 0 l 343 125 l 584 125 l 584 0 l 1324 0 l 1324 200 l 844 200 l 844 265 l 1324 265 l 1324 435 l 844 435 l 844 500 m 584 510 l 584 306 l 412 306 l 489 510 "},"B":{"ha":898,"o":"m 783 391 b 817 431 838 477 838 522 b 838 628 789 700 630 700 l 20 700 l 20 0 l 660 0 b 819 0 888 92 888 207 b 888 283 844 347 783 391 m 280 530 l 520 530 b 546 530 578 530 578 492 b 578 454 546 454 520 454 l 280 454 m 570 190 l 280 190 l 280 264 l 570 264 b 596 264 628 264 628 227 b 628 190 596 190 570 190 "},"C":{"ha":897,"o":"m 10 351 b 10 107 142 -10 450 -10 b 731 -10 876 89 887 311 l 621 311 b 611 244 560 210 450 210 b 297 210 270 276 270 351 b 270 425 296 490 450 490 b 560 490 611 457 621 391 l 887 391 b 876 612 730 710 450 710 b 142 710 10 594 10 351 "},"Ć":{"ha":897,"o":"m 254 900 l 254 760 l 643 840 l 643 980 m 10 351 b 10 107 142 -10 450 -10 b 731 -10 876 89 887 311 l 621 311 b 611 244 560 210 450 210 b 297 210 270 276 270 351 b 270 425 296 490 450 490 b 560 490 611 457 621 391 l 887 391 b 876 612 730 710 450 710 b 142 710 10 594 10 351 "},"Č":{"ha":897,"o":"m 655 842 l 655 982 l 448 902 l 241 982 l 241 842 l 448 762 m 450 210 b 297 210 270 276 270 351 b 270 425 296 490 450 490 b 560 490 611 457 621 391 l 887 391 b 876 612 730 710 450 710 b 142 710 10 594 10 351 b 10 107 142 -10 450 -10 b 731 -10 876 89 887 311 l 621 311 b 611 244 560 210 450 210 "},"Ç":{"ha":897,"o":"m 450 210 b 297 210 270 276 270 351 b 270 425 296 490 450 490 b 560 490 611 457 621 391 l 887 391 b 876 612 730 710 450 710 b 142 710 10 594 10 351 b 10 126 123 9 383 -8 l 368 -35 l 427 -93 b 505 -75 531 -83 531 -107 b 531 -139 486 -158 355 -139 l 355 -230 b 509 -249 671 -230 671 -116 b 671 -20 557 -28 496 -46 l 512 -8 b 752 6 877 106 887 311 l 621 311 b 611 244 560 210 450 210 "},"Ċ":{"ha":897,"o":"m 329 950 l 329 770 l 569 770 l 569 950 m 10 351 b 10 107 142 -10 450 -10 b 731 -10 876 89 887 311 l 621 311 b 611 244 560 210 450 210 b 297 210 270 276 270 351 b 270 425 296 490 450 490 b 560 490 611 457 621 391 l 887 391 b 876 612 730 710 450 710 b 142 710 10 594 10 351 "},"D":{"ha":878,"o":"m 540 700 l 20 700 l 20 0 l 540 0 b 709 0 868 112 868 350 b 868 588 709 700 540 700 m 460 220 l 280 220 l 280 480 l 460 480 b 516 480 608 480 608 350 b 608 220 516 220 460 220 "},"Ð":{"ha":961,"o":"m 613 700 l 93 700 l 93 420 l 20 420 l 20 280 l 93 280 l 93 0 l 613 0 b 782 0 941 112 941 350 b 941 588 782 700 613 700 m 533 220 l 353 220 l 353 280 l 500 280 l 500 420 l 353 420 l 353 480 l 533 480 b 589 480 681 480 681 350 b 681 220 589 220 533 220 "},"Ď":{"ha":878,"o":"m 580 842 l 580 982 l 373 902 l 166 982 l 166 842 l 373 762 m 540 700 l 20 700 l 20 0 l 540 0 b 709 0 868 112 868 350 b 868 588 709 700 540 700 m 460 220 l 280 220 l 280 480 l 460 480 b 516 480 608 480 608 350 b 608 220 516 220 460 220 "},"Đ":{"ha":961,"o":"m 613 700 l 93 700 l 93 420 l 20 420 l 20 280 l 93 280 l 93 0 l 613 0 b 782 0 941 112 941 350 b 941 588 782 700 613 700 m 533 220 l 353 220 l 353 280 l 500 280 l 500 420 l 353 420 l 353 480 l 533 480 b 589 480 681 480 681 350 b 681 220 589 220 533 220 "},"E":{"ha":770,"o":"m 760 500 l 760 700 l 20 700 l 20 0 l 760 0 l 760 200 l 280 200 l 280 265 l 760 265 l 760 435 l 280 435 l 280 500 "},"É":{"ha":770,"o":"m 584 980 l 195 900 l 195 760 l 584 840 m 760 500 l 760 700 l 20 700 l 20 0 l 760 0 l 760 200 l 280 200 l 280 265 l 760 265 l 760 435 l 280 435 l 280 500 "},"Ě":{"ha":770,"o":"m 596 842 l 596 982 l 389 902 l 182 982 l 182 842 l 389 762 m 760 500 l 760 700 l 20 700 l 20 0 l 760 0 l 760 200 l 280 200 l 280 265 l 760 265 l 760 435 l 280 435 l 280 500 "},"Ê":{"ha":770,"o":"m 597 760 l 597 900 l 390 980 l 183 900 l 183 760 l 390 840 m 760 500 l 760 700 l 20 700 l 20 0 l 760 0 l 760 200 l 280 200 l 280 265 l 760 265 l 760 435 l 280 435 l 280 500 "},"Ë":{"ha":770,"o":"m 360 950 l 160 950 l 160 770 l 360 770 m 620 950 l 420 950 l 420 770 l 620 770 m 760 500 l 760 700 l 20 700 l 20 0 l 760 0 l 760 200 l 280 200 l 280 265 l 760 265 l 760 435 l 280 435 l 280 500 "},"Ė":{"ha":770,"o":"m 510 950 l 270 950 l 270 770 l 510 770 m 760 500 l 760 700 l 20 700 l 20 0 l 760 0 l 760 200 l 280 200 l 280 265 l 760 265 l 760 435 l 280 435 l 280 500 "},"È":{"ha":770,"o":"m 584 900 l 195 980 l 195 840 l 584 760 m 760 500 l 760 700 l 20 700 l 20 0 l 760 0 l 760 200 l 280 200 l 280 265 l 760 265 l 760 435 l 280 435 l 280 500 "},"Ē":{"ha":770,"o":"m 624 910 l 155 910 l 155 770 l 624 770 m 760 500 l 760 700 l 20 700 l 20 0 l 760 0 l 760 200 l 280 200 l 280 265 l 760 265 l 760 435 l 280 435 l 280 500 "},"Ę":{"ha":770,"o":"m 760 500 l 760 700 l 20 700 l 20 0 l 546 0 b 495 -33 472 -72 472 -113 b 472 -211 573 -230 760 -230 l 760 -90 b 677 -90 612 -90 612 -52 b 612 -31 632 -17 653 0 l 760 0 l 760 200 l 280 200 l 280 265 l 760 265 l 760 435 l 280 435 l 280 500 "},"F":{"ha":770,"o":"m 760 480 l 760 700 l 20 700 l 20 0 l 280 0 l 280 185 l 700 185 l 700 405 l 280 405 l 280 480 "},"G":{"ha":897,"o":"m 433 241 l 621 241 b 611 194 550 180 450 180 b 297 180 270 256 270 341 b 270 425 296 490 450 490 b 560 490 611 457 621 421 l 887 421 b 876 612 730 710 450 710 b 162 710 10 594 10 351 b 10 107 162 -10 420 -10 b 567 -10 659 32 718 101 l 737 0 l 887 0 l 887 381 l 433 381 "},"Ğ":{"ha":897,"o":"m 449 750 b 573 750 676 790 676 970 l 556 970 b 556 900 523 870 449 870 b 375 870 342 900 342 970 l 222 970 b 222 790 325 750 449 750 m 433 241 l 621 241 b 611 194 550 180 450 180 b 297 180 270 256 270 341 b 270 425 296 490 450 490 b 560 490 611 457 621 421 l 887 421 b 876 612 730 710 450 710 b 162 710 10 594 10 351 b 10 107 162 -10 420 -10 b 567 -10 659 32 718 101 l 737 0 l 887 0 l 887 381 l 433 381 "},"Ģ":{"ha":897,"o":"m 433 241 l 621 241 b 611 194 550 180 450 180 b 297 180 270 256 270 341 b 270 425 296 490 450 490 b 560 490 611 457 621 421 l 887 421 b 876 612 730 710 450 710 b 162 710 10 594 10 351 b 10 107 162 -10 420 -10 b 567 -10 659 32 718 101 l 737 0 l 887 0 l 887 381 l 433 381 m 349 -220 l 417 -220 l 349 -330 l 446 -330 l 549 -220 l 549 -100 l 349 -100 "},"Ġ":{"ha":897,"o":"m 569 950 l 329 950 l 329 770 l 569 770 m 433 241 l 621 241 b 611 194 550 180 450 180 b 297 180 270 256 270 341 b 270 425 296 490 450 490 b 560 490 611 457 621 421 l 887 421 b 876 612 730 710 450 710 b 162 710 10 594 10 351 b 10 107 162 -10 420 -10 b 567 -10 659 32 718 101 l 737 0 l 887 0 l 887 381 l 433 381 "},"H":{"ha":970,"o":"m 690 700 l 690 460 l 280 460 l 280 700 l 20 700 l 20 0 l 280 0 l 280 240 l 690 240 l 690 0 l 950 0 l 950 700 "},"Ħ":{"ha":970,"o":"m 985 640 l 950 640 l 950 700 l 690 700 l 690 640 l 280 640 l 280 700 l 20 700 l 20 640 l -15 640 l -15 500 l 20 500 l 20 0 l 280 0 l 280 240 l 690 240 l 690 0 l 950 0 l 950 500 l 985 500 m 690 460 l 280 460 l 280 500 l 690 500 "},"I":{"ha":300,"o":"m 280 700 l 20 700 l 20 0 l 280 0 "},"Í":{"ha":300,"o":"m -45 900 l -45 760 l 344 840 l 344 980 m 280 700 l 20 700 l 20 0 l 280 0 "},"Î":{"ha":300,"o":"m 150 980 l -57 900 l -57 760 l 150 840 l 357 760 l 357 900 m 20 0 l 280 0 l 280 700 l 20 700 "},"Ï":{"ha":300,"o":"m -80 950 l -80 770 l 120 770 l 120 950 m 180 950 l 180 770 l 380 770 l 380 950 m 280 700 l 20 700 l 20 0 l 280 0 "},"İ":{"ha":300,"o":"m 30 950 l 30 770 l 270 770 l 270 950 m 280 700 l 20 700 l 20 0 l 280 0 "},"Ì":{"ha":300,"o":"m 344 900 l -45 980 l -45 840 l 344 760 m 280 700 l 20 700 l 20 0 l 280 0 "},"Ī":{"ha":300,"o":"m -85 910 l -85 770 l 384 770 l 384 910 m 280 700 l 20 700 l 20 0 l 280 0 "},"Į":{"ha":300,"o":"m 191 -52 b 191 -31 211 -17 232 0 l 280 0 l 280 700 l 20 700 l 20 0 l 125 0 b 74 -33 51 -72 51 -113 b 51 -211 152 -230 339 -230 l 339 -90 b 256 -90 191 -90 191 -52 "},"J":{"ha":880,"o":"m 860 700 l 373 700 l 373 480 l 600 480 l 600 351 b 600 277 573 210 440 210 b 307 210 280 276 280 351 l 20 351 b 20 107 152 -10 440 -10 b 727 -10 860 108 860 351 "},"K":{"ha":982,"o":"m 972 700 l 602 700 l 280 426 l 280 700 l 20 700 l 20 0 l 280 0 l 280 133 l 388 222 l 612 0 l 972 0 l 569 370 "},"Ķ":{"ha":982,"o":"m 972 700 l 602 700 l 280 426 l 280 700 l 20 700 l 20 0 l 280 0 l 280 133 l 388 222 l 612 0 l 972 0 l 569 370 m 396 -220 l 464 -220 l 396 -330 l 493 -330 l 596 -220 l 596 -100 l 396 -100 "},"L":{"ha":750,"o":"m 280 220 l 280 700 l 20 700 l 20 0 l 740 0 l 740 220 "},"Ĺ":{"ha":750,"o":"m 409 980 l 20 900 l 20 760 l 409 840 m 280 220 l 280 700 l 20 700 l 20 0 l 740 0 l 740 220 "},"Ľ":{"ha":750,"o":"m 421 842 l 421 982 l 214 902 l 7 982 l 7 842 l 214 762 m 280 220 l 280 700 l 20 700 l 20 0 l 740 0 l 740 220 "},"Ļ":{"ha":750,"o":"m 280 220 l 280 700 l 20 700 l 20 0 l 740 0 l 740 220 m 280 -220 l 348 -220 l 280 -330 l 377 -330 l 480 -220 l 480 -100 l 280 -100 "},"Ł":{"ha":820,"o":"m 340 220 l 340 390 l 542 450 l 542 600 l 340 540 l 340 700 l 80 700 l 80 462 l 20 444 l 20 294 l 80 312 l 80 0 l 800 0 l 800 220 "},"M":{"ha":1112,"o":"m 1092 700 l 772 700 l 556 300 l 340 700 l 20 700 l 20 0 l 280 0 l 280 333 l 471 0 l 641 0 l 832 333 l 832 0 l 1092 0 "},"N":{"ha":942,"o":"m 662 700 l 662 287 l 360 700 l 20 700 l 20 0 l 280 0 l 280 413 l 582 0 l 922 0 l 922 700 "},"Ń":{"ha":942,"o":"m 665 980 l 276 900 l 276 760 l 665 840 m 662 700 l 662 287 l 360 700 l 20 700 l 20 0 l 280 0 l 280 413 l 582 0 l 922 0 l 922 700 "},"Ň":{"ha":942,"o":"m 677 842 l 677 982 l 470 902 l 263 982 l 263 842 l 470 762 m 662 700 l 662 287 l 360 700 l 20 700 l 20 0 l 280 0 l 280 413 l 582 0 l 922 0 l 922 700 "},"Ņ":{"ha":942,"o":"m 662 700 l 662 287 l 360 700 l 20 700 l 20 0 l 280 0 l 280 413 l 582 0 l 922 0 l 922 700 m 371 -220 l 439 -220 l 371 -330 l 468 -330 l 571 -220 l 571 -100 l 371 -100 "},"Ŋ":{"ha":942,"o":"m 662 700 l 662 287 l 360 700 l 20 700 l 20 0 l 280 0 l 280 413 l 582 0 l 662 0 b 662 -51 640 -70 580 -70 b 546 -70 516 -66 467 -60 l 467 -255 b 524 -265 585 -270 644 -270 b 840 -270 922 -173 922 0 l 922 700 "},"Ñ":{"ha":942,"o":"m 411 830 b 494 830 518 760 621 760 b 728 760 761 870 761 970 l 581 970 b 581 930 568 910 531 910 b 448 910 424 980 321 980 b 214 980 181 870 181 770 l 361 770 b 361 810 374 830 411 830 m 662 700 l 662 287 l 360 700 l 20 700 l 20 0 l 280 0 l 280 413 l 582 0 l 922 0 l 922 700 "},"O":{"ha":900,"o":"m 450 -10 b 757 -10 890 108 890 351 b 890 593 757 710 450 710 b 142 710 10 594 10 351 b 10 107 142 -10 450 -10 m 450 210 b 297 210 270 276 270 351 b 270 425 296 490 450 490 b 604 490 630 424 630 351 b 630 277 603 210 450 210 "},"Ó":{"ha":900,"o":"m 255 900 l 255 760 l 644 840 l 644 980 m 450 -10 b 757 -10 890 108 890 351 b 890 593 757 710 450 710 b 142 710 10 594 10 351 b 10 107 142 -10 450 -10 m 450 210 b 297 210 270 276 270 351 b 270 425 296 490 450 490 b 604 490 630 424 630 351 b 630 277 603 210 450 210 "},"Ô":{"ha":900,"o":"m 657 760 l 657 900 l 450 980 l 243 900 l 243 760 l 450 840 m 450 710 b 142 710 10 594 10 351 b 10 107 142 -10 450 -10 b 757 -10 890 108 890 351 b 890 593 757 710 450 710 m 450 210 b 297 210 270 276 270 351 b 270 425 296 490 450 490 b 604 490 630 424 630 351 b 630 277 603 210 450 210 "},"Ö":{"ha":900,"o":"m 220 950 l 220 770 l 420 770 l 420 950 m 480 950 l 480 770 l 680 770 l 680 950 m 450 -10 b 757 -10 890 108 890 351 b 890 593 757 710 450 710 b 142 710 10 594 10 351 b 10 107 142 -10 450 -10 m 450 210 b 297 210 270 276 270 351 b 270 425 296 490 450 490 b 604 490 630 424 630 351 b 630 277 603 210 450 210 "},"Ò":{"ha":900,"o":"m 644 900 l 255 980 l 255 840 l 644 760 m 450 -10 b 757 -10 890 108 890 351 b 890 593 757 710 450 710 b 142 710 10 594 10 351 b 10 107 142 -10 450 -10 m 450 210 b 297 210 270 276 270 351 b 270 425 296 490 450 490 b 604 490 630 424 630 351 b 630 277 603 210 450 210 "},"Ő":{"ha":900,"o":"m 213 910 l 213 770 l 420 850 l 420 990 m 480 910 l 480 770 l 687 850 l 687 990 m 450 -10 b 757 -10 890 108 890 351 b 890 593 757 710 450 710 b 142 710 10 594 10 351 b 10 107 142 -10 450 -10 m 450 210 b 297 210 270 276 270 351 b 270 425 296 490 450 490 b 604 490 630 424 630 351 b 630 277 603 210 450 210 "},"Ō":{"ha":900,"o":"m 215 910 l 215 770 l 684 770 l 684 910 m 450 -10 b 757 -10 890 108 890 351 b 890 593 757 710 450 710 b 142 710 10 594 10 351 b 10 107 142 -10 450 -10 m 450 210 b 297 210 270 276 270 351 b 270 425 296 490 450 490 b 604 490 630 424 630 351 b 630 277 603 210 450 210 "},"Ø":{"ha":900,"o":"m 637 691 l 665 785 l 495 785 l 473 710 l 450 710 b 142 710 10 594 10 351 b 10 164 88 51 263 9 l 235 -85 l 405 -85 l 427 -10 l 450 -10 b 757 -10 890 108 890 351 b 890 537 812 649 637 691 m 270 351 b 270 417 291 476 406 488 l 330 233 b 281 258 270 303 270 351 m 494 212 l 570 468 b 619 442 630 398 630 351 b 630 285 608 224 494 212 "},"Õ":{"ha":900,"o":"m 160 770 l 340 770 b 340 810 353 830 390 830 b 473 830 497 760 600 760 b 707 760 740 870 740 970 l 560 970 b 560 930 547 910 510 910 b 427 910 403 980 300 980 b 193 980 160 870 160 770 m 450 -10 b 757 -10 890 108 890 351 b 890 593 757 710 450 710 b 142 710 10 594 10 351 b 10 107 142 -10 450 -10 m 450 210 b 297 210 270 276 270 351 b 270 425 296 490 450 490 b 604 490 630 424 630 351 b 630 277 603 210 450 210 "},"Œ":{"ha":1492,"o":"m 1482 500 l 1482 700 l 742 700 l 742 651 b 672 690 575 710 450 710 b 142 710 10 594 10 351 b 10 107 142 -10 450 -10 b 575 -10 672 10 742 50 l 742 0 l 1482 0 l 1482 200 l 1002 200 l 1002 265 l 1482 265 l 1482 435 l 1002 435 l 1002 500 m 450 210 b 297 210 270 276 270 351 b 270 425 296 490 450 490 b 604 490 630 424 630 351 b 630 277 603 210 450 210 "},"P":{"ha":848,"o":"m 570 700 l 20 700 l 20 0 l 280 0 l 280 164 l 570 164 b 729 164 838 276 838 432 b 838 588 729 700 570 700 m 520 384 l 280 384 l 280 480 l 520 480 b 546 480 578 480 578 432 b 578 384 546 384 520 384 "},"Þ":{"ha":848,"o":"m 570 618 l 280 618 l 280 700 l 20 700 l 20 0 l 280 0 l 280 82 l 570 82 b 729 82 838 194 838 350 b 838 506 729 618 570 618 m 520 302 l 280 302 l 280 398 l 520 398 b 546 398 578 398 578 350 b 578 302 546 302 520 302 "},"Q":{"ha":1023,"o":"m 1003 68 l 868 203 b 883 246 890 295 890 351 b 890 593 757 710 450 710 b 142 710 10 594 10 351 b 10 107 142 -10 450 -10 b 542 -10 619 1 681 22 l 819 -116 m 450 210 b 297 210 270 276 270 351 b 270 425 296 490 450 490 b 604 490 630 424 630 351 b 630 277 603 210 450 210 "},"R":{"ha":848,"o":"m 838 432 b 838 588 729 700 570 700 l 20 700 l 20 0 l 280 0 l 280 164 l 433 164 l 530 0 l 838 0 l 714 201 b 791 246 838 330 838 432 m 280 480 l 520 480 b 546 480 578 480 578 432 b 578 384 546 384 520 384 l 280 384 "},"Ŕ":{"ha":848,"o":"m 623 980 l 234 900 l 234 760 l 623 840 m 838 432 b 838 588 729 700 570 700 l 20 700 l 20 0 l 280 0 l 280 164 l 433 164 l 530 0 l 838 0 l 714 201 b 791 246 838 330 838 432 m 280 480 l 520 480 b 546 480 578 480 578 432 b 578 384 546 384 520 384 l 280 384 "},"Ř":{"ha":848,"o":"m 635 842 l 635 982 l 428 902 l 221 982 l 221 842 l 428 762 m 838 432 b 838 588 729 700 570 700 l 20 700 l 20 0 l 280 0 l 280 164 l 433 164 l 530 0 l 838 0 l 714 201 b 791 246 838 330 838 432 m 280 480 l 520 480 b 546 480 578 480 578 432 b 578 384 546 384 520 384 l 280 384 "},"Ŗ":{"ha":848,"o":"m 838 432 b 838 588 729 700 570 700 l 20 700 l 20 0 l 280 0 l 280 164 l 433 164 l 530 0 l 838 0 l 714 201 b 791 246 838 330 838 432 m 280 480 l 520 480 b 546 480 578 480 578 432 b 578 384 546 384 520 384 l 280 384 m 329 -220 l 397 -220 l 329 -330 l 426 -330 l 529 -220 l 529 -100 l 329 -100 "},"S":{"ha":914,"o":"m 10 247 b 10 39 170 -10 457 -10 b 744 -10 904 39 904 232 b 904 415 733 434 457 445 b 305 451 280 450 280 477 b 280 504 305 510 427 510 b 554 510 614 502 614 465 l 874 465 b 874 644 720 710 447 710 b 171 710 20 644 20 490 b 20 327 141 275 457 265 b 621 260 644 256 644 226 b 644 200 621 190 467 190 b 302 190 270 213 270 247 "},"Ś":{"ha":914,"o":"m 262 900 l 262 760 l 651 840 l 651 980 m 10 247 b 10 39 170 -10 457 -10 b 744 -10 904 39 904 232 b 904 415 733 434 457 445 b 305 451 280 450 280 477 b 280 504 305 510 427 510 b 554 510 614 502 614 465 l 874 465 b 874 644 720 710 447 710 b 171 710 20 644 20 490 b 20 327 141 275 457 265 b 621 260 644 256 644 226 b 644 200 621 190 467 190 b 302 190 270 213 270 247 "},"Š":{"ha":914,"o":"m 663 842 l 663 982 l 456 902 l 249 982 l 249 842 l 456 762 m 457 445 b 305 451 280 450 280 477 b 280 504 305 510 427 510 b 554 510 614 502 614 465 l 874 465 b 874 644 720 710 447 710 b 171 710 20 644 20 490 b 20 327 141 275 457 265 b 621 260 644 256 644 226 b 644 200 621 190 467 190 b 302 190 270 213 270 247 l 10 247 b 10 39 170 -10 457 -10 b 744 -10 904 39 904 232 b 904 415 733 434 457 445 "},"Ş":{"ha":914,"o":"m 904 232 b 904 415 733 434 457 445 b 305 451 280 450 280 477 b 280 504 305 510 427 510 b 554 510 614 502 614 465 l 874 465 b 874 644 720 710 447 710 b 171 710 20 644 20 490 b 20 327 141 275 457 265 b 621 260 644 256 644 226 b 644 200 621 190 467 190 b 302 190 270 213 270 247 l 10 247 b 10 56 145 -1 390 -9 l 376 -35 l 435 -93 b 513 -75 539 -83 539 -107 b 539 -139 494 -158 363 -139 l 363 -230 b 517 -249 679 -230 679 -116 b 679 -20 565 -28 504 -46 l 519 -9 b 767 -2 904 53 904 232 "},"Ș":{"ha":914,"o":"m 10 247 b 10 39 170 -10 457 -10 b 744 -10 904 39 904 232 b 904 415 733 434 457 445 b 305 451 280 450 280 477 b 280 504 305 510 427 510 b 554 510 614 502 614 465 l 874 465 b 874 644 720 710 447 710 b 171 710 20 644 20 490 b 20 327 141 275 457 265 b 621 260 644 256 644 226 b 644 200 621 190 467 190 b 302 190 270 213 270 247 m 357 -100 l 357 -220 l 425 -220 l 357 -330 l 454 -330 l 557 -220 l 557 -100 "},"T":{"ha":880,"o":"m 870 700 l 10 700 l 10 480 l 310 480 l 310 0 l 570 0 l 570 480 l 870 480 "},"Ŧ":{"ha":880,"o":"m 870 480 l 870 700 l 10 700 l 10 480 l 310 480 l 310 360 l 191 360 l 191 220 l 310 220 l 310 0 l 570 0 l 570 220 l 671 220 l 671 360 l 570 360 l 570 480 "},"Ť":{"ha":880,"o":"m 646 842 l 646 982 l 439 902 l 232 982 l 232 842 l 439 762 m 870 700 l 10 700 l 10 480 l 310 480 l 310 0 l 570 0 l 570 480 l 870 480 "},"Ţ":{"ha":880,"o":"m 570 0 l 570 480 l 870 480 l 870 700 l 10 700 l 10 480 l 310 480 l 310 0 l 378 0 l 359 -35 l 418 -93 b 496 -75 522 -83 522 -107 b 522 -139 477 -158 346 -139 l 346 -230 b 500 -249 662 -230 662 -116 b 662 -20 548 -28 487 -46 l 506 0 "},"Ț":{"ha":880,"o":"m 870 700 l 10 700 l 10 480 l 310 480 l 310 0 l 570 0 l 570 480 l 870 480 m 340 -220 l 408 -220 l 340 -330 l 437 -330 l 540 -220 l 540 -100 l 340 -100 "},"U":{"ha":920,"o":"m 900 351 l 900 700 l 640 700 l 640 351 b 640 277 613 210 460 210 b 307 210 280 276 280 351 l 280 700 l 20 700 l 20 351 b 20 107 152 -10 460 -10 b 767 -10 900 108 900 351 "},"Ú":{"ha":920,"o":"m 265 900 l 265 760 l 654 840 l 654 980 m 900 351 l 900 700 l 640 700 l 640 351 b 640 277 613 210 460 210 b 307 210 280 276 280 351 l 280 700 l 20 700 l 20 351 b 20 107 152 -10 460 -10 b 767 -10 900 108 900 351 "},"Û":{"ha":920,"o":"m 667 760 l 667 900 l 460 980 l 253 900 l 253 760 l 460 840 m 640 700 l 640 351 b 640 277 613 210 460 210 b 307 210 280 276 280 351 l 280 700 l 20 700 l 20 351 b 20 107 152 -10 460 -10 b 767 -10 900 108 900 351 l 900 700 "},"Ü":{"ha":920,"o":"m 230 950 l 230 770 l 430 770 l 430 950 m 490 950 l 490 770 l 690 770 l 690 950 m 900 351 l 900 700 l 640 700 l 640 351 b 640 277 613 210 460 210 b 307 210 280 276 280 351 l 280 700 l 20 700 l 20 351 b 20 107 152 -10 460 -10 b 767 -10 900 108 900 351 "},"Ù":{"ha":920,"o":"m 654 900 l 265 980 l 265 840 l 654 760 m 900 351 l 900 700 l 640 700 l 640 351 b 640 277 613 210 460 210 b 307 210 280 276 280 351 l 280 700 l 20 700 l 20 351 b 20 107 152 -10 460 -10 b 767 -10 900 108 900 351 "},"Ű":{"ha":920,"o":"m 223 910 l 223 770 l 430 850 l 430 990 m 490 910 l 490 770 l 697 850 l 697 990 m 900 351 l 900 700 l 640 700 l 640 351 b 640 277 613 210 460 210 b 307 210 280 276 280 351 l 280 700 l 20 700 l 20 351 b 20 107 152 -10 460 -10 b 767 -10 900 108 900 351 "},"Ū":{"ha":920,"o":"m 225 910 l 225 770 l 694 770 l 694 910 m 900 351 l 900 700 l 640 700 l 640 351 b 640 277 613 210 460 210 b 307 210 280 276 280 351 l 280 700 l 20 700 l 20 351 b 20 107 152 -10 460 -10 b 767 -10 900 108 900 351 "},"Ų":{"ha":920,"o":"m 640 700 l 640 351 b 640 277 613 210 460 210 b 307 210 280 276 280 351 l 280 700 l 20 700 l 20 351 b 20 107 152 -10 460 -10 l 465 -10 b 424 -41 405 -76 405 -113 b 405 -211 506 -230 693 -230 l 693 -90 b 610 -90 545 -90 545 -52 b 545 -32 563 -18 583 -3 b 803 27 900 143 900 351 l 900 700 "},"Ů":{"ha":920,"o":"m 460 760 b 628 760 670 809 670 892 b 670 975 628 1024 460 1024 b 292 1024 250 975 250 892 b 250 809 292 760 460 760 m 460 850 b 412 850 370 852 370 892 b 370 932 412 934 460 934 b 508 934 550 932 550 892 b 550 852 508 850 460 850 m 900 351 l 900 700 l 640 700 l 640 351 b 640 277 613 210 460 210 b 307 210 280 276 280 351 l 280 700 l 20 700 l 20 351 b 20 107 152 -10 460 -10 b 767 -10 900 108 900 351 "},"V":{"ha":986,"o":"m 690 700 l 493 180 l 296 700 l 10 700 l 300 0 l 686 0 l 976 700 "},"W":{"ha":1482,"o":"m 1193 700 l 1048 206 l 896 700 l 586 700 l 434 206 l 289 700 l 10 700 l 240 0 l 626 0 l 741 403 l 856 0 l 1242 0 l 1472 700 "},"Ẃ":{"ha":1482,"o":"m 935 980 l 546 900 l 546 760 l 935 840 m 1193 700 l 1048 206 l 896 700 l 586 700 l 434 206 l 289 700 l 10 700 l 240 0 l 626 0 l 741 403 l 856 0 l 1242 0 l 1472 700 "},"Ŵ":{"ha":1482,"o":"m 948 760 l 948 900 l 741 980 l 534 900 l 534 760 l 741 840 m 1193 700 l 1048 206 l 896 700 l 586 700 l 434 206 l 289 700 l 10 700 l 240 0 l 626 0 l 741 403 l 856 0 l 1242 0 l 1472 700 "},"Ẅ":{"ha":1482,"o":"m 711 950 l 511 950 l 511 770 l 711 770 m 971 950 l 771 950 l 771 770 l 971 770 m 1193 700 l 1048 206 l 896 700 l 586 700 l 434 206 l 289 700 l 10 700 l 240 0 l 626 0 l 741 403 l 856 0 l 1242 0 l 1472 700 "},"Ẁ":{"ha":1482,"o":"m 935 900 l 546 980 l 546 840 l 935 760 m 1193 700 l 1048 206 l 896 700 l 586 700 l 434 206 l 289 700 l 10 700 l 240 0 l 626 0 l 741 403 l 856 0 l 1242 0 l 1472 700 "},"X":{"ha":1052,"o":"m 10 0 l 350 0 l 526 200 l 702 0 l 1042 0 l 711 350 l 1042 700 l 702 700 l 526 500 l 350 700 l 10 700 l 341 350 "},"Y":{"ha":992,"o":"m 366 230 l 366 0 l 626 0 l 626 230 l 982 700 l 682 700 l 496 440 l 310 700 l 10 700 "},"Ý":{"ha":992,"o":"m 301 900 l 301 760 l 690 840 l 690 980 m 366 230 l 366 0 l 626 0 l 626 230 l 982 700 l 682 700 l 496 440 l 310 700 l 10 700 "},"Ŷ":{"ha":992,"o":"m 703 760 l 703 900 l 496 980 l 289 900 l 289 760 l 496 840 m 682 700 l 496 440 l 310 700 l 10 700 l 366 230 l 366 0 l 626 0 l 626 230 l 982 700 "},"Ÿ":{"ha":992,"o":"m 266 950 l 266 770 l 466 770 l 466 950 m 526 950 l 526 770 l 726 770 l 726 950 m 366 230 l 366 0 l 626 0 l 626 230 l 982 700 l 682 700 l 496 440 l 310 700 l 10 700 "},"Ỳ":{"ha":992,"o":"m 690 900 l 301 980 l 301 840 l 690 760 m 366 230 l 366 0 l 626 0 l 626 230 l 982 700 l 682 700 l 496 440 l 310 700 l 10 700 "},"Z":{"ha":830,"o":"m 810 700 l 20 700 l 20 480 l 440 480 l 20 220 l 20 0 l 810 0 l 810 220 l 390 220 l 810 480 "},"Ź":{"ha":830,"o":"m 609 980 l 220 900 l 220 760 l 609 840 m 810 700 l 20 700 l 20 480 l 440 480 l 20 220 l 20 0 l 810 0 l 810 220 l 390 220 l 810 480 "},"Ž":{"ha":830,"o":"m 621 842 l 621 982 l 414 902 l 207 982 l 207 842 l 414 762 m 810 700 l 20 700 l 20 480 l 440 480 l 20 220 l 20 0 l 810 0 l 810 220 l 390 220 l 810 480 "},"Ż":{"ha":830,"o":"m 535 950 l 295 950 l 295 770 l 535 770 m 810 700 l 20 700 l 20 480 l 440 480 l 20 220 l 20 0 l 810 0 l 810 220 l 390 220 l 810 480 "},"a":{"ha":828,"o":"m 420 610 b 309 610 179 588 59 549 l 137 379 b 247 403 335 410 412 410 b 492 410 568 407 568 335 b 513 355 449 366 365 366 b 190 366 10 325 10 169 b 10 39 130 -10 267 -10 b 371 -10 475 5 568 73 l 568 0 l 808 0 l 808 297 b 806 526 666 610 420 610 m 568 196 b 508 170 420 150 339 150 b 278 150 250 155 250 188 b 250 226 298 236 409 236 b 478 236 530 231 568 221 "},"á":{"ha":828,"o":"m 621 880 l 232 800 l 232 660 l 621 740 m 420 610 b 309 610 179 588 59 549 l 137 379 b 247 403 335 410 412 410 b 492 410 568 407 568 335 b 513 355 449 366 365 366 b 190 366 10 325 10 169 b 10 39 130 -10 267 -10 b 371 -10 475 5 568 73 l 568 0 l 808 0 l 808 297 b 806 526 666 610 420 610 m 568 196 b 508 170 420 150 339 150 b 278 150 250 155 250 188 b 250 226 298 236 409 236 b 478 236 530 231 568 221 "},"ă":{"ha":828,"o":"m 427 650 b 551 650 654 690 654 870 l 534 870 b 534 800 501 770 427 770 b 353 770 320 800 320 870 l 200 870 b 200 690 303 650 427 650 m 420 610 b 309 610 179 588 59 549 l 137 379 b 247 403 335 410 412 410 b 492 410 568 407 568 335 b 513 355 449 366 365 366 b 190 366 10 325 10 169 b 10 39 130 -10 267 -10 b 371 -10 475 5 568 73 l 568 0 l 808 0 l 808 297 b 806 526 666 610 420 610 m 568 196 b 508 170 420 150 339 150 b 278 150 250 155 250 188 b 250 226 298 236 409 236 b 478 236 530 231 568 221 "},"â":{"ha":828,"o":"m 634 660 l 634 800 l 427 880 l 220 800 l 220 660 l 427 740 m 420 610 b 309 610 179 588 59 549 l 137 379 b 247 403 335 410 412 410 b 492 410 568 407 568 335 b 513 355 449 366 365 366 b 190 366 10 325 10 169 b 10 39 130 -10 267 -10 b 371 -10 475 5 568 73 l 568 0 l 808 0 l 808 297 b 806 526 666 610 420 610 m 568 196 b 508 170 420 150 339 150 b 278 150 250 155 250 188 b 250 226 298 236 409 236 b 478 236 530 231 568 221 "},"ä":{"ha":828,"o":"m 397 850 l 197 850 l 197 670 l 397 670 m 657 850 l 457 850 l 457 670 l 657 670 m 420 610 b 309 610 179 588 59 549 l 137 379 b 247 403 335 410 412 410 b 492 410 568 407 568 335 b 513 355 449 366 365 366 b 190 366 10 325 10 169 b 10 39 130 -10 267 -10 b 371 -10 475 5 568 73 l 568 0 l 808 0 l 808 297 b 806 526 666 610 420 610 m 568 196 b 508 170 420 150 339 150 b 278 150 250 155 250 188 b 250 226 298 236 409 236 b 478 236 530 231 568 221 "},"à":{"ha":828,"o":"m 621 800 l 232 880 l 232 740 l 621 660 m 420 610 b 309 610 179 588 59 549 l 137 379 b 247 403 335 410 412 410 b 492 410 568 407 568 335 b 513 355 449 366 365 366 b 190 366 10 325 10 169 b 10 39 130 -10 267 -10 b 371 -10 475 5 568 73 l 568 0 l 808 0 l 808 297 b 806 526 666 610 420 610 m 568 196 b 508 170 420 150 339 150 b 278 150 250 155 250 188 b 250 226 298 236 409 236 b 478 236 530 231 568 221 "},"ā":{"ha":828,"o":"m 661 810 l 192 810 l 192 670 l 661 670 m 420 610 b 309 610 179 588 59 549 l 137 379 b 247 403 335 410 412 410 b 492 410 568 407 568 335 b 513 355 449 366 365 366 b 190 366 10 325 10 169 b 10 39 130 -10 267 -10 b 371 -10 475 5 568 73 l 568 0 l 808 0 l 808 297 b 806 526 666 610 420 610 m 568 196 b 508 170 420 150 339 150 b 278 150 250 155 250 188 b 250 226 298 236 409 236 b 478 236 530 231 568 221 "},"ą":{"ha":828,"o":"m 701 0 l 808 0 l 808 297 b 806 526 666 610 420 610 b 309 610 179 588 59 549 l 137 379 b 247 403 335 410 412 410 b 492 410 568 407 568 335 b 513 355 449 366 365 366 b 190 366 10 325 10 169 b 10 39 130 -10 267 -10 b 371 -10 475 5 568 73 l 568 0 l 594 0 b 543 -33 520 -72 520 -113 b 520 -211 621 -230 808 -230 l 808 -90 b 725 -90 660 -90 660 -52 b 660 -31 680 -17 701 0 m 568 196 b 508 170 420 150 339 150 b 278 150 250 155 250 188 b 250 226 298 236 409 236 b 478 236 530 231 568 221 "},"å":{"ha":828,"o":"m 427 660 b 595 660 637 709 637 792 b 637 875 595 924 427 924 b 259 924 217 875 217 792 b 217 709 259 660 427 660 m 427 834 b 475 834 517 832 517 792 b 517 752 475 750 427 750 b 379 750 337 752 337 792 b 337 832 379 834 427 834 m 420 610 b 309 610 179 588 59 549 l 137 379 b 247 403 335 410 412 410 b 492 410 568 407 568 335 b 513 355 449 366 365 366 b 190 366 10 325 10 169 b 10 39 130 -10 267 -10 b 371 -10 475 5 568 73 l 568 0 l 808 0 l 808 297 b 806 526 666 610 420 610 m 568 196 b 508 170 420 150 339 150 b 278 150 250 155 250 188 b 250 226 298 236 409 236 b 478 236 530 231 568 221 "},"ã":{"ha":828,"o":"m 367 730 b 450 730 474 660 577 660 b 684 660 717 770 717 870 l 537 870 b 537 830 524 810 487 810 b 404 810 380 880 277 880 b 170 880 137 770 137 670 l 317 670 b 317 710 330 730 367 730 m 420 610 b 309 610 179 588 59 549 l 137 379 b 247 403 335 410 412 410 b 492 410 568 407 568 335 b 513 355 449 366 365 366 b 190 366 10 325 10 169 b 10 39 130 -10 267 -10 b 371 -10 475 5 568 73 l 568 0 l 808 0 l 808 297 b 806 526 666 610 420 610 m 568 196 b 508 170 420 150 339 150 b 278 150 250 155 250 188 b 250 226 298 236 409 236 b 478 236 530 231 568 221 "},"æ":{"ha":1421,"o":"m 995 180 b 929 180 862 196 842 260 l 1411 260 b 1411 522 1252 610 1005 610 b 882 610 780 588 708 538 b 642 589 544 610 420 610 b 309 610 179 588 59 549 l 137 379 b 247 403 335 410 412 410 b 492 410 568 407 568 335 b 513 355 449 366 365 366 b 190 366 10 325 10 169 b 10 39 130 -10 298 -10 b 454 -10 590 23 682 83 b 752 18 862 -10 995 -10 b 1242 -10 1371 66 1401 225 l 1166 225 b 1117 186 1082 180 995 180 m 1004 440 b 1068 440 1128 434 1155 380 l 853 380 b 880 434 940 440 1004 440 m 568 196 b 508 170 420 150 339 150 b 278 150 250 155 250 188 b 250 226 298 236 409 236 b 478 236 530 231 568 221 "},"b":{"ha":846,"o":"m 508 610 b 415 610 323 582 260 518 l 260 800 l 20 800 l 20 0 l 260 0 l 260 82 b 323 18 415 -10 508 -10 b 663 -10 836 58 836 300 b 836 542 663 610 508 610 m 428 190 b 321 190 260 212 260 300 b 260 388 321 410 428 410 b 535 410 596 388 596 300 b 596 212 535 190 428 190 "},"c":{"ha":834,"o":"m 10 300 b 10 78 163 -10 418 -10 b 655 -10 804 66 824 255 l 579 255 b 560 204 504 190 418 190 b 311 190 250 212 250 300 b 250 388 311 410 418 410 b 504 410 560 396 579 345 l 824 345 b 804 534 655 610 418 610 b 163 610 10 522 10 300 "},"ć":{"ha":834,"o":"m 222 800 l 222 660 l 611 740 l 611 880 m 10 300 b 10 78 163 -10 418 -10 b 655 -10 804 66 824 255 l 579 255 b 560 204 504 190 418 190 b 311 190 250 212 250 300 b 250 388 311 410 418 410 b 504 410 560 396 579 345 l 824 345 b 804 534 655 610 418 610 b 163 610 10 522 10 300 "},"č":{"ha":834,"o":"m 623 742 l 623 882 l 416 802 l 209 882 l 209 742 l 416 662 m 418 190 b 311 190 250 212 250 300 b 250 388 311 410 418 410 b 504 410 560 396 579 345 l 824 345 b 804 534 655 610 418 610 b 163 610 10 522 10 300 b 10 78 163 -10 418 -10 b 655 -10 804 66 824 255 l 579 255 b 560 204 504 190 418 190 "},"ç":{"ha":834,"o":"m 418 190 b 311 190 250 212 250 300 b 250 388 311 410 418 410 b 504 410 560 396 579 345 l 824 345 b 804 534 655 610 418 610 b 163 610 10 522 10 300 b 10 98 136 7 351 -8 l 336 -35 l 395 -93 b 473 -75 499 -83 499 -107 b 499 -139 454 -158 323 -139 l 323 -230 b 477 -249 639 -230 639 -116 b 639 -20 525 -28 464 -46 l 480 -8 b 681 5 806 83 824 255 l 579 255 b 560 204 504 190 418 190 "},"ċ":{"ha":834,"o":"m 297 850 l 297 670 l 537 670 l 537 850 m 10 300 b 10 78 163 -10 418 -10 b 655 -10 804 66 824 255 l 579 255 b 560 204 504 190 418 190 b 311 190 250 212 250 300 b 250 388 311 410 418 410 b 504 410 560 396 579 345 l 824 345 b 804 534 655 610 418 610 b 163 610 10 522 10 300 "},"d":{"ha":846,"o":"m 586 800 l 586 518 b 523 582 431 610 338 610 b 183 610 10 542 10 300 b 10 58 183 -10 338 -10 b 431 -10 523 18 586 82 l 586 0 l 826 0 l 826 800 m 418 190 b 311 190 250 212 250 300 b 250 388 311 410 418 410 b 525 410 586 388 586 300 b 586 212 525 190 418 190 "},"ð":{"ha":903,"o":"m 696 776 l 836 850 l 732 939 l 572 855 b 474 904 360 933 240 940 l 211 740 b 250 737 287 732 322 725 l 212 667 l 316 577 l 484 665 b 564 618 618 549 636 457 b 562 514 467 560 341 560 b 117 560 20 443 20 278 b 20 70 173 -10 412 -10 b 651 -10 883 97 883 386 b 883 550 810 682 696 776 m 412 190 b 298 190 260 223 260 278 b 260 339 305 360 384 360 b 440 360 533 342 611 270 b 572 215 501 190 412 190 "},"ď":{"ha":1136,"o":"m 586 518 b 523 582 431 610 338 610 b 183 610 10 542 10 300 b 10 58 183 -10 338 -10 b 431 -10 523 18 586 82 l 586 0 l 826 0 l 826 800 l 586 800 m 876 800 l 876 620 l 964 620 l 896 400 l 1003 400 l 1116 620 l 1116 800 m 418 190 b 311 190 250 212 250 300 b 250 388 311 410 418 410 b 525 410 586 388 586 300 b 586 212 525 190 418 190 "},"đ":{"ha":896,"o":"m 876 760 l 826 760 l 826 800 l 586 800 l 586 760 l 396 760 l 396 620 l 586 620 l 586 518 b 523 582 431 610 338 610 b 183 610 10 542 10 300 b 10 58 183 -10 338 -10 b 431 -10 523 18 586 82 l 586 0 l 826 0 l 826 620 l 876 620 m 418 190 b 311 190 250 212 250 300 b 250 388 311 410 418 410 b 525 410 586 388 586 300 b 586 212 525 190 418 190 "},"e":{"ha":834,"o":"m 408 180 b 342 180 275 196 255 260 l 824 260 b 824 522 665 610 418 610 b 173 610 10 522 10 300 b 10 78 173 -10 408 -10 b 655 -10 784 66 814 225 l 579 225 b 530 186 495 180 408 180 m 417 440 b 481 440 541 434 568 380 l 266 380 b 293 434 353 440 417 440 "},"é":{"ha":834,"o":"m 611 880 l 222 800 l 222 660 l 611 740 m 408 180 b 342 180 275 196 255 260 l 824 260 b 824 522 665 610 418 610 b 173 610 10 522 10 300 b 10 78 173 -10 408 -10 b 655 -10 784 66 814 225 l 579 225 b 530 186 495 180 408 180 m 417 440 b 481 440 541 434 568 380 l 266 380 b 293 434 353 440 417 440 "},"ě":{"ha":834,"o":"m 623 742 l 623 882 l 416 802 l 209 882 l 209 742 l 416 662 m 408 180 b 342 180 275 196 255 260 l 824 260 b 824 522 665 610 418 610 b 173 610 10 522 10 300 b 10 78 173 -10 408 -10 b 655 -10 784 66 814 225 l 579 225 b 530 186 495 180 408 180 m 417 440 b 481 440 541 434 568 380 l 266 380 b 293 434 353 440 417 440 "},"ê":{"ha":834,"o":"m 624 660 l 624 800 l 417 880 l 210 800 l 210 660 l 417 740 m 408 180 b 342 180 275 196 255 260 l 824 260 b 824 522 665 610 418 610 b 173 610 10 522 10 300 b 10 78 173 -10 408 -10 b 655 -10 784 66 814 225 l 579 225 b 530 186 495 180 408 180 m 417 440 b 481 440 541 434 568 380 l 266 380 b 293 434 353 440 417 440 "},"ë":{"ha":834,"o":"m 387 850 l 187 850 l 187 670 l 387 670 m 647 850 l 447 850 l 447 670 l 647 670 m 408 180 b 342 180 275 196 255 260 l 824 260 b 824 522 665 610 418 610 b 173 610 10 522 10 300 b 10 78 173 -10 408 -10 b 655 -10 784 66 814 225 l 579 225 b 530 186 495 180 408 180 m 417 440 b 481 440 541 434 568 380 l 266 380 b 293 434 353 440 417 440 "},"ė":{"ha":834,"o":"m 537 850 l 297 850 l 297 670 l 537 670 m 408 180 b 342 180 275 196 255 260 l 824 260 b 824 522 665 610 418 610 b 173 610 10 522 10 300 b 10 78 173 -10 408 -10 b 655 -10 784 66 814 225 l 579 225 b 530 186 495 180 408 180 m 417 440 b 481 440 541 434 568 380 l 266 380 b 293 434 353 440 417 440 "},"è":{"ha":834,"o":"m 611 800 l 222 880 l 222 740 l 611 660 m 408 180 b 342 180 275 196 255 260 l 824 260 b 824 522 665 610 418 610 b 173 610 10 522 10 300 b 10 78 173 -10 408 -10 b 655 -10 784 66 814 225 l 579 225 b 530 186 495 180 408 180 m 417 440 b 481 440 541 434 568 380 l 266 380 b 293 434 353 440 417 440 "},"ē":{"ha":834,"o":"m 651 810 l 182 810 l 182 670 l 651 670 m 408 180 b 342 180 275 196 255 260 l 824 260 b 824 522 665 610 418 610 b 173 610 10 522 10 300 b 10 78 173 -10 408 -10 b 655 -10 784 66 814 225 l 579 225 b 530 186 495 180 408 180 m 417 440 b 481 440 541 434 568 380 l 266 380 b 293 434 353 440 417 440 "},"ę":{"ha":834,"o":"m 408 180 b 342 180 275 196 255 260 l 824 260 b 824 522 665 610 418 610 b 173 610 10 522 10 300 b 10 78 173 -10 408 -10 l 424 -10 b 383 -41 364 -76 364 -113 b 364 -211 465 -230 652 -230 l 652 -90 b 569 -90 504 -90 504 -52 b 504 -31 524 -17 544 0 b 703 24 790 98 814 225 l 579 225 b 530 186 495 180 408 180 m 417 440 b 481 440 541 434 568 380 l 266 380 b 293 434 353 440 417 440 "},"f":{"ha":596,"o":"m 463 655 b 507 655 547 653 586 650 l 586 800 b 499 810 468 810 409 810 b 203 810 131 753 131 633 l 131 600 l 10 600 l 10 400 l 131 400 l 131 0 l 371 0 l 371 400 l 586 400 l 586 600 l 373 600 b 380 638 405 655 463 655 "},"g":{"ha":846,"o":"m 586 600 l 586 510 b 534 573 449 610 328 610 b 143 610 10 522 10 320 b 10 118 143 30 328 30 b 449 30 534 67 586 130 b 584 -22 521 -50 404 -50 b 274 -50 142 -21 73 -8 l 73 -203 b 130 -218 277 -250 448 -250 b 654 -250 826 -163 826 77 l 826 600 m 418 230 b 291 230 250 252 250 320 b 250 388 291 410 418 410 b 545 410 586 388 586 320 b 586 252 545 230 418 230 "},"ğ":{"ha":846,"o":"m 418 650 b 542 650 645 690 645 870 l 525 870 b 525 800 492 770 418 770 b 344 770 311 800 311 870 l 191 870 b 191 690 294 650 418 650 m 586 600 l 586 510 b 534 573 449 610 328 610 b 143 610 10 522 10 320 b 10 118 143 30 328 30 b 449 30 534 67 586 130 b 584 -22 521 -50 404 -50 b 274 -50 142 -21 73 -8 l 73 -203 b 130 -218 277 -250 448 -250 b 654 -250 826 -163 826 77 l 826 600 m 418 230 b 291 230 250 252 250 320 b 250 388 291 410 418 410 b 545 410 586 388 586 320 b 586 252 545 230 418 230 "},"ģ":{"ha":846,"o":"m 518 820 l 450 820 l 518 930 l 421 930 l 318 820 l 318 700 l 518 700 m 586 600 l 586 510 b 534 573 449 610 328 610 b 143 610 10 522 10 320 b 10 118 143 30 328 30 b 449 30 534 67 586 130 b 584 -22 521 -50 404 -50 b 274 -50 142 -21 73 -8 l 73 -203 b 130 -218 277 -250 448 -250 b 654 -250 826 -163 826 77 l 826 600 m 418 230 b 291 230 250 252 250 320 b 250 388 291 410 418 410 b 545 410 586 388 586 320 b 586 252 545 230 418 230 "},"ġ":{"ha":846,"o":"m 538 850 l 298 850 l 298 670 l 538 670 m 586 600 l 586 510 b 534 573 449 610 328 610 b 143 610 10 522 10 320 b 10 118 143 30 328 30 b 449 30 534 67 586 130 b 584 -22 521 -50 404 -50 b 274 -50 142 -21 73 -8 l 73 -203 b 130 -218 277 -250 448 -250 b 654 -250 826 -163 826 77 l 826 600 m 418 230 b 291 230 250 252 250 320 b 250 388 291 410 418 410 b 545 410 586 388 586 320 b 586 252 545 230 418 230 "},"h":{"ha":858,"o":"m 550 610 b 424 610 332 570 260 520 l 260 800 l 20 800 l 20 0 l 260 0 l 260 324 b 307 369 382 400 453 400 b 561 400 598 356 598 253 l 598 0 l 838 0 l 838 351 b 838 568 685 610 550 610 "},"ħ":{"ha":898,"o":"m 590 610 b 464 610 372 570 300 520 l 300 620 l 500 620 l 500 760 l 300 760 l 300 800 l 60 800 l 60 760 l 20 760 l 20 620 l 60 620 l 60 0 l 300 0 l 300 324 b 347 369 422 400 493 400 b 601 400 638 356 638 253 l 638 0 l 878 0 l 878 351 b 878 568 725 610 590 610 "},"i":{"ha":280,"o":"m 20 800 l 20 640 l 260 640 l 260 800 m 20 600 l 20 0 l 260 0 l 260 600 "},"ı":{"ha":280,"o":"m 20 600 l 20 0 l 260 0 l 260 600 "},"í":{"ha":280,"o":"m -55 800 l -55 660 l 334 740 l 334 880 m 20 600 l 20 0 l 260 0 l 260 600 "},"î":{"ha":280,"o":"m 140 880 l -67 800 l -67 660 l 140 740 l 347 660 l 347 800 m 20 0 l 260 0 l 260 600 l 20 600 "},"ï":{"ha":280,"o":"m -90 850 l -90 670 l 110 670 l 110 850 m 170 850 l 170 670 l 370 670 l 370 850 m 20 600 l 20 0 l 260 0 l 260 600 "},"ì":{"ha":280,"o":"m 334 800 l -55 880 l -55 740 l 334 660 m 20 600 l 20 0 l 260 0 l 260 600 "},"ī":{"ha":280,"o":"m -95 810 l -95 670 l 374 670 l 374 810 m 20 600 l 20 0 l 260 0 l 260 600 "},"į":{"ha":280,"o":"m 260 850 l 20 850 l 20 670 l 260 670 m 173 -52 b 173 -31 193 -17 214 0 l 260 0 l 260 600 l 20 600 l 20 0 l 107 0 b 56 -33 33 -72 33 -113 b 33 -211 134 -230 321 -230 l 321 -90 b 238 -90 173 -90 173 -52 "},"j":{"ha":455,"o":"m 195 800 l 195 640 l 435 640 l 435 800 m 435 600 l 195 600 l 195 36 b 195 -31 173 -50 103 -50 b 59 -50 29 -46 -20 -40 l -20 -235 b 37 -245 98 -250 157 -250 b 353 -250 435 -153 435 27 "},"k":{"ha":922,"o":"m 912 600 l 542 600 l 260 386 l 260 800 l 20 800 l 20 0 l 260 0 l 260 123 l 401 226 l 602 0 l 912 0 l 584 351 "},"ķ":{"ha":922,"o":"m 912 600 l 542 600 l 260 386 l 260 800 l 20 800 l 20 0 l 260 0 l 260 123 l 401 226 l 602 0 l 912 0 l 584 351 m 316 -220 l 384 -220 l 316 -330 l 413 -330 l 516 -220 l 516 -100 l 316 -100 "},"l":{"ha":280,"o":"m 20 800 l 20 0 l 260 0 l 260 800 "},"ĺ":{"ha":280,"o":"m -55 1000 l -55 860 l 334 940 l 334 1080 m 20 800 l 20 0 l 260 0 l 260 800 "},"ľ":{"ha":280,"o":"m 139 1002 l -68 1082 l -68 942 l 139 862 l 346 942 l 346 1082 m 20 0 l 260 0 l 260 800 l 20 800 "},"ļ":{"ha":280,"o":"m 20 800 l 20 0 l 260 0 l 260 800 m 40 -100 l 40 -220 l 108 -220 l 40 -330 l 137 -330 l 240 -220 l 240 -100 "},"ł":{"ha":562,"o":"m 542 600 l 401 558 l 401 800 l 161 800 l 161 486 l 20 444 l 20 294 l 161 336 l 161 0 l 401 0 l 401 408 l 542 450 "},"m":{"ha":1316,"o":"m 1048 610 b 902 610 810 560 747 500 b 700 588 605 610 530 610 b 384 610 313 550 260 500 l 260 600 l 20 600 l 20 0 l 260 0 l 260 324 b 311 374 362 400 423 400 b 511 400 538 356 538 253 l 538 0 l 778 0 l 778 324 b 829 374 880 400 941 400 b 1029 400 1056 356 1056 253 l 1056 0 l 1296 0 l 1296 361 b 1296 568 1153 610 1048 610 "},"n":{"ha":858,"o":"m 550 610 b 424 610 332 570 260 520 l 260 600 l 20 600 l 20 0 l 260 0 l 260 324 b 307 369 382 400 453 400 b 561 400 598 356 598 253 l 598 0 l 838 0 l 838 351 b 838 568 685 610 550 610 "},"ń":{"ha":858,"o":"m 663 880 l 274 800 l 274 660 l 663 740 m 550 610 b 424 610 332 570 260 520 l 260 600 l 20 600 l 20 0 l 260 0 l 260 324 b 307 369 382 400 453 400 b 561 400 598 356 598 253 l 598 0 l 838 0 l 838 351 b 838 568 685 610 550 610 "},"ň":{"ha":858,"o":"m 675 742 l 675 882 l 468 802 l 261 882 l 261 742 l 468 662 m 550 610 b 424 610 332 570 260 520 l 260 600 l 20 600 l 20 0 l 260 0 l 260 324 b 307 369 382 400 453 400 b 561 400 598 356 598 253 l 598 0 l 838 0 l 838 351 b 838 568 685 610 550 610 "},"ņ":{"ha":858,"o":"m 550 610 b 424 610 332 570 260 520 l 260 600 l 20 600 l 20 0 l 260 0 l 260 324 b 307 369 382 400 453 400 b 561 400 598 356 598 253 l 598 0 l 838 0 l 838 351 b 838 568 685 610 550 610 m 329 -220 l 397 -220 l 329 -330 l 426 -330 l 529 -220 l 529 -100 l 329 -100 "},"ŋ":{"ha":858,"o":"m 550 610 b 424 610 332 570 260 520 l 260 600 l 20 600 l 20 0 l 260 0 l 260 324 b 307 369 382 400 453 400 b 561 400 598 356 598 253 l 598 0 b 598 -51 576 -70 496 -70 b 462 -70 432 -66 383 -60 l 383 -255 b 440 -265 501 -270 560 -270 b 756 -270 838 -173 838 0 l 838 351 b 838 568 685 610 550 610 "},"ñ":{"ha":858,"o":"m 409 730 b 492 730 516 660 619 660 b 726 660 759 770 759 870 l 579 870 b 579 830 566 810 529 810 b 446 810 422 880 319 880 b 212 880 179 770 179 670 l 359 670 b 359 710 372 730 409 730 m 550 610 b 424 610 332 570 260 520 l 260 600 l 20 600 l 20 0 l 260 0 l 260 324 b 307 369 382 400 453 400 b 561 400 598 356 598 253 l 598 0 l 838 0 l 838 351 b 838 568 685 610 550 610 "},"o":{"ha":836,"o":"m 418 -10 b 673 -10 826 78 826 300 b 826 522 673 610 418 610 b 163 610 10 522 10 300 b 10 78 163 -10 418 -10 m 418 190 b 311 190 250 212 250 300 b 250 388 311 410 418 410 b 525 410 586 388 586 300 b 586 212 525 190 418 190 "},"ó":{"ha":836,"o":"m 223 800 l 223 660 l 612 740 l 612 880 m 418 -10 b 673 -10 826 78 826 300 b 826 522 673 610 418 610 b 163 610 10 522 10 300 b 10 78 163 -10 418 -10 m 418 190 b 311 190 250 212 250 300 b 250 388 311 410 418 410 b 525 410 586 388 586 300 b 586 212 525 190 418 190 "},"ô":{"ha":836,"o":"m 625 660 l 625 800 l 418 880 l 211 800 l 211 660 l 418 740 m 418 610 b 163 610 10 522 10 300 b 10 78 163 -10 418 -10 b 673 -10 826 78 826 300 b 826 522 673 610 418 610 m 418 190 b 311 190 250 212 250 300 b 250 388 311 410 418 410 b 525 410 586 388 586 300 b 586 212 525 190 418 190 "},"ö":{"ha":836,"o":"m 188 850 l 188 670 l 388 670 l 388 850 m 448 850 l 448 670 l 648 670 l 648 850 m 418 -10 b 673 -10 826 78 826 300 b 826 522 673 610 418 610 b 163 610 10 522 10 300 b 10 78 163 -10 418 -10 m 418 190 b 311 190 250 212 250 300 b 250 388 311 410 418 410 b 525 410 586 388 586 300 b 586 212 525 190 418 190 "},"ò":{"ha":836,"o":"m 612 800 l 223 880 l 223 740 l 612 660 m 418 -10 b 673 -10 826 78 826 300 b 826 522 673 610 418 610 b 163 610 10 522 10 300 b 10 78 163 -10 418 -10 m 418 190 b 311 190 250 212 250 300 b 250 388 311 410 418 410 b 525 410 586 388 586 300 b 586 212 525 190 418 190 "},"ő":{"ha":836,"o":"m 181 810 l 181 670 l 388 750 l 388 890 m 448 810 l 448 670 l 655 750 l 655 890 m 418 -10 b 673 -10 826 78 826 300 b 826 522 673 610 418 610 b 163 610 10 522 10 300 b 10 78 163 -10 418 -10 m 418 190 b 311 190 250 212 250 300 b 250 388 311 410 418 410 b 525 410 586 388 586 300 b 586 212 525 190 418 190 "},"ō":{"ha":836,"o":"m 183 810 l 183 670 l 652 670 l 652 810 m 418 -10 b 673 -10 826 78 826 300 b 826 522 673 610 418 610 b 163 610 10 522 10 300 b 10 78 163 -10 418 -10 m 418 190 b 311 190 250 212 250 300 b 250 388 311 410 418 410 b 525 410 586 388 586 300 b 586 212 525 190 418 190 "},"ø":{"ha":836,"o":"m 590 593 l 633 735 l 463 735 l 426 610 l 418 610 b 163 610 10 522 10 300 b 10 134 96 43 246 7 l 203 -135 l 373 -135 l 410 -10 l 418 -10 b 673 -10 826 78 826 300 b 826 466 740 557 590 593 m 250 300 b 250 372 291 400 365 408 l 305 206 b 269 222 250 251 250 300 m 471 192 l 531 394 b 567 378 586 349 586 300 b 586 228 545 200 471 192 "},"õ":{"ha":836,"o":"m 128 670 l 308 670 b 308 710 321 730 358 730 b 441 730 465 660 568 660 b 675 660 708 770 708 870 l 528 870 b 528 830 515 810 478 810 b 395 810 371 880 268 880 b 161 880 128 770 128 670 m 418 -10 b 673 -10 826 78 826 300 b 826 522 673 610 418 610 b 163 610 10 522 10 300 b 10 78 163 -10 418 -10 m 418 190 b 311 190 250 212 250 300 b 250 388 311 410 418 410 b 525 410 586 388 586 300 b 586 212 525 190 418 190 "},"œ":{"ha":1460,"o":"m 1034 180 b 968 180 901 196 881 260 l 1450 260 b 1450 522 1291 610 1044 610 b 912 610 804 585 733 527 b 663 585 555 610 418 610 b 163 610 10 522 10 300 b 10 78 163 -10 418 -10 b 555 -10 662 15 732 73 b 803 15 908 -10 1034 -10 b 1281 -10 1410 66 1440 225 l 1205 225 b 1156 186 1121 180 1034 180 m 1043 440 b 1107 440 1167 434 1194 380 l 892 380 b 919 434 979 440 1043 440 m 418 190 b 311 190 250 212 250 300 b 250 388 311 410 418 410 b 525 410 586 388 586 300 b 586 212 525 190 418 190 "},"p":{"ha":846,"o":"m 508 610 b 415 610 323 582 260 518 l 260 600 l 20 600 l 20 -250 l 260 -250 l 260 82 b 323 18 415 -10 508 -10 b 663 -10 836 58 836 300 b 836 542 663 610 508 610 m 428 190 b 321 190 260 212 260 300 b 260 388 321 410 428 410 b 535 410 596 388 596 300 b 596 212 535 190 428 190 "},"þ":{"ha":856,"o":"m 528 610 b 412 610 319 572 260 504 l 260 800 l 20 800 l 20 -160 l 260 -160 l 260 96 b 319 28 412 -10 528 -10 b 693 -10 836 58 836 300 b 836 542 693 610 528 610 m 428 190 b 321 190 260 212 260 300 b 260 388 321 410 428 410 b 535 410 596 388 596 300 b 596 212 535 190 428 190 "},"q":{"ha":846,"o":"m 586 600 l 586 518 b 523 582 431 610 338 610 b 183 610 10 542 10 300 b 10 58 183 -10 338 -10 b 431 -10 523 18 586 82 l 586 -250 l 826 -250 l 826 600 m 418 190 b 311 190 250 212 250 300 b 250 388 311 410 418 410 b 525 410 586 388 586 300 b 586 212 525 190 418 190 "},"r":{"ha":662,"o":"m 493 610 b 395 610 313 579 260 500 l 260 600 l 20 600 l 20 0 l 260 0 l 260 324 b 329 400 422 410 507 410 b 551 410 596 404 652 390 l 652 590 b 612 600 563 610 493 610 "},"ŕ":{"ha":662,"o":"m 530 880 l 141 800 l 141 660 l 530 740 m 493 610 b 395 610 313 579 260 500 l 260 600 l 20 600 l 20 0 l 260 0 l 260 324 b 329 400 422 410 507 410 b 551 410 596 404 652 390 l 652 590 b 612 600 563 610 493 610 "},"ř":{"ha":662,"o":"m 542 742 l 542 882 l 335 802 l 128 882 l 128 742 l 335 662 m 493 610 b 395 610 313 579 260 500 l 260 600 l 20 600 l 20 0 l 260 0 l 260 324 b 329 400 422 410 507 410 b 551 410 596 404 652 390 l 652 590 b 612 600 563 610 493 610 "},"ŗ":{"ha":662,"o":"m 493 610 b 395 610 313 579 260 500 l 260 600 l 20 600 l 20 0 l 260 0 l 260 324 b 329 400 422 410 507 410 b 551 410 596 404 652 390 l 652 590 b 612 600 563 610 493 610 m 40 -220 l 108 -220 l 40 -330 l 137 -330 l 240 -220 l 240 -100 l 40 -100 "},"s":{"ha":834,"o":"m 10 207 b 10 19 210 -10 437 -10 b 664 -10 824 19 824 202 b 824 359 673 373 437 385 b 285 393 260 392 260 417 b 260 440 295 440 417 440 b 524 440 564 440 564 408 l 804 408 b 804 581 649 610 427 610 b 205 610 20 581 20 410 b 20 257 141 236 417 225 b 561 219 584 222 584 192 b 584 166 561 160 427 160 b 282 160 250 173 250 207 "},"ś":{"ha":834,"o":"m 222 800 l 222 660 l 611 740 l 611 880 m 10 207 b 10 19 210 -10 437 -10 b 664 -10 824 19 824 202 b 824 359 673 373 437 385 b 285 393 260 392 260 417 b 260 440 295 440 417 440 b 524 440 564 440 564 408 l 804 408 b 804 581 649 610 427 610 b 205 610 20 581 20 410 b 20 257 141 236 417 225 b 561 219 584 222 584 192 b 584 166 561 160 427 160 b 282 160 250 173 250 207 "},"š":{"ha":834,"o":"m 623 742 l 623 882 l 416 802 l 209 882 l 209 742 l 416 662 m 437 385 b 285 393 260 392 260 417 b 260 440 295 440 417 440 b 524 440 564 440 564 408 l 804 408 b 804 581 649 610 427 610 b 205 610 20 581 20 410 b 20 257 141 236 417 225 b 561 219 584 222 584 192 b 584 166 561 160 427 160 b 282 160 250 173 250 207 l 10 207 b 10 19 210 -10 437 -10 b 664 -10 824 19 824 202 b 824 359 673 373 437 385 "},"ş":{"ha":834,"o":"m 824 202 b 824 359 673 373 437 385 b 285 393 260 392 260 417 b 260 440 295 440 417 440 b 524 440 564 440 564 408 l 804 408 b 804 581 649 610 427 610 b 205 610 20 581 20 410 b 20 257 141 236 417 225 b 561 219 584 222 584 192 b 584 166 561 160 427 160 b 282 160 250 173 250 207 l 10 207 b 10 43 162 0 351 -8 l 336 -35 l 395 -93 b 473 -75 499 -83 499 -107 b 499 -139 454 -158 323 -139 l 323 -230 b 477 -249 639 -230 639 -116 b 639 -20 525 -28 464 -46 l 479 -10 b 684 -6 824 31 824 202 "},"ș":{"ha":834,"o":"m 10 207 b 10 19 210 -10 437 -10 b 664 -10 824 19 824 202 b 824 359 673 373 437 385 b 285 393 260 392 260 417 b 260 440 295 440 417 440 b 524 440 564 440 564 408 l 804 408 b 804 581 649 610 427 610 b 205 610 20 581 20 410 b 20 257 141 236 417 225 b 561 219 584 222 584 192 b 584 166 561 160 427 160 b 282 160 250 173 250 207 m 317 -100 l 317 -220 l 385 -220 l 317 -330 l 414 -330 l 517 -220 l 517 -100 "},"ß":{"ha":824,"o":"m 648 400 b 683 434 704 475 704 525 b 704 664 583 710 397 710 b 154 710 20 664 20 435 l 20 0 l 260 0 l 260 435 b 260 510 330 510 387 510 b 429 510 464 500 464 466 b 464 427 439 420 357 420 l 357 300 b 549 300 574 291 574 250 b 574 209 549 200 357 200 l 357 0 b 673 0 814 20 814 200 b 814 321 748 376 648 400 "},"t":{"ha":626,"o":"m 616 400 l 616 600 l 371 600 l 371 760 l 131 700 l 131 600 l 10 600 l 10 400 l 131 400 l 131 177 b 131 47 223 -10 409 -10 b 488 -10 559 -5 616 5 l 616 200 b 547 190 517 190 463 190 b 393 190 371 219 371 276 l 371 400 "},"ŧ":{"ha":626,"o":"m 616 400 l 616 600 l 371 600 l 371 760 l 131 700 l 131 600 l 10 600 l 10 400 l 131 400 l 131 370 l 64 370 l 64 230 l 131 230 l 131 177 b 131 47 223 -10 409 -10 b 488 -10 559 -5 616 5 l 616 200 b 547 190 517 190 463 190 b 415 190 390 203 379 230 l 544 230 l 544 370 l 371 370 l 371 400 "},"ť":{"ha":626,"o":"m 457 882 l 457 1022 l 250 942 l 43 1022 l 43 882 l 250 802 m 616 400 l 616 600 l 371 600 l 371 760 l 131 700 l 131 600 l 10 600 l 10 400 l 131 400 l 131 177 b 131 47 223 -10 409 -10 b 488 -10 559 -5 616 5 l 616 200 b 547 190 517 190 463 190 b 393 190 371 219 371 276 l 371 400 "},"ţ":{"ha":626,"o":"m 616 400 l 616 600 l 371 600 l 371 760 l 131 700 l 131 600 l 10 600 l 10 400 l 131 400 l 131 177 b 131 68 196 10 328 -6 l 312 -35 l 371 -93 b 449 -75 475 -83 475 -107 b 475 -139 430 -158 299 -139 l 299 -230 b 453 -249 615 -230 615 -116 b 615 -20 501 -28 440 -46 l 455 -9 b 516 -8 570 -3 616 5 l 616 200 b 547 190 517 190 463 190 b 393 190 371 219 371 276 l 371 400 "},"ț":{"ha":626,"o":"m 616 400 l 616 600 l 371 600 l 371 760 l 131 700 l 131 600 l 10 600 l 10 400 l 131 400 l 131 177 b 131 47 223 -10 409 -10 b 488 -10 559 -5 616 5 l 616 200 b 547 190 517 190 463 190 b 393 190 371 219 371 276 l 371 400 m 293 -220 l 361 -220 l 293 -330 l 390 -330 l 493 -220 l 493 -100 l 293 -100 "},"u":{"ha":858,"o":"m 598 600 l 598 276 b 551 231 476 200 405 200 b 297 200 260 244 260 347 l 260 600 l 20 600 l 20 249 b 20 32 173 -10 308 -10 b 434 -10 526 30 598 80 l 598 0 l 838 0 l 838 600 "},"ú":{"ha":858,"o":"m 623 880 l 234 800 l 234 660 l 623 740 m 598 600 l 598 276 b 551 231 476 200 405 200 b 297 200 260 244 260 347 l 260 600 l 20 600 l 20 249 b 20 32 173 -10 308 -10 b 434 -10 526 30 598 80 l 598 0 l 838 0 l 838 600 "},"û":{"ha":858,"o":"m 636 660 l 636 800 l 429 880 l 222 800 l 222 660 l 429 740 m 598 600 l 598 276 b 551 231 476 200 405 200 b 297 200 260 244 260 347 l 260 600 l 20 600 l 20 249 b 20 32 173 -10 308 -10 b 434 -10 526 30 598 80 l 598 0 l 838 0 l 838 600 "},"ü":{"ha":858,"o":"m 399 850 l 199 850 l 199 670 l 399 670 m 659 850 l 459 850 l 459 670 l 659 670 m 598 600 l 598 276 b 551 231 476 200 405 200 b 297 200 260 244 260 347 l 260 600 l 20 600 l 20 249 b 20 32 173 -10 308 -10 b 434 -10 526 30 598 80 l 598 0 l 838 0 l 838 600 "},"ù":{"ha":858,"o":"m 623 800 l 234 880 l 234 740 l 623 660 m 598 600 l 598 276 b 551 231 476 200 405 200 b 297 200 260 244 260 347 l 260 600 l 20 600 l 20 249 b 20 32 173 -10 308 -10 b 434 -10 526 30 598 80 l 598 0 l 838 0 l 838 600 "},"ű":{"ha":858,"o":"m 399 890 l 192 810 l 192 670 l 399 750 m 666 890 l 459 810 l 459 670 l 666 750 m 598 600 l 598 276 b 551 231 476 200 405 200 b 297 200 260 244 260 347 l 260 600 l 20 600 l 20 249 b 20 32 173 -10 308 -10 b 434 -10 526 30 598 80 l 598 0 l 838 0 l 838 600 "},"ū":{"ha":858,"o":"m 663 810 l 194 810 l 194 670 l 663 670 m 598 600 l 598 276 b 551 231 476 200 405 200 b 297 200 260 244 260 347 l 260 600 l 20 600 l 20 249 b 20 32 173 -10 308 -10 b 434 -10 526 30 598 80 l 598 0 l 838 0 l 838 600 "},"ų":{"ha":858,"o":"m 724 0 l 838 0 l 838 600 l 598 600 l 598 276 b 551 231 476 200 405 200 b 297 200 260 244 260 347 l 260 600 l 20 600 l 20 249 b 20 32 173 -10 308 -10 b 434 -10 526 30 598 80 l 598 0 l 617 0 b 566 -33 543 -72 543 -113 b 543 -211 644 -230 831 -230 l 831 -90 b 748 -90 683 -90 683 -52 b 683 -31 703 -17 724 0 "},"ů":{"ha":858,"o":"m 429 660 b 597 660 639 709 639 792 b 639 875 597 924 429 924 b 261 924 219 875 219 792 b 219 709 261 660 429 660 m 429 834 b 477 834 519 832 519 792 b 519 752 477 750 429 750 b 381 750 339 752 339 792 b 339 832 381 834 429 834 m 598 600 l 598 276 b 551 231 476 200 405 200 b 297 200 260 244 260 347 l 260 600 l 20 600 l 20 249 b 20 32 173 -10 308 -10 b 434 -10 526 30 598 80 l 598 0 l 838 0 l 838 600 "},"v":{"ha":861,"o":"m 591 600 l 431 181 l 270 600 l 10 600 l 260 0 l 601 0 l 851 600 "},"w":{"ha":1352,"o":"m 1072 600 l 933 222 l 801 600 l 551 600 l 419 222 l 280 600 l 10 600 l 260 0 l 551 0 l 676 313 l 801 0 l 1092 0 l 1342 600 "},"ẃ":{"ha":1352,"o":"m 870 880 l 481 800 l 481 660 l 870 740 m 1072 600 l 933 222 l 801 600 l 551 600 l 419 222 l 280 600 l 10 600 l 260 0 l 551 0 l 676 313 l 801 0 l 1092 0 l 1342 600 "},"ŵ":{"ha":1352,"o":"m 883 660 l 883 800 l 676 880 l 469 800 l 469 660 l 676 740 m 1072 600 l 933 222 l 801 600 l 551 600 l 419 222 l 280 600 l 10 600 l 260 0 l 551 0 l 676 313 l 801 0 l 1092 0 l 1342 600 "},"ẅ":{"ha":1352,"o":"m 646 850 l 446 850 l 446 670 l 646 670 m 906 850 l 706 850 l 706 670 l 906 670 m 1072 600 l 933 222 l 801 600 l 551 600 l 419 222 l 280 600 l 10 600 l 260 0 l 551 0 l 676 313 l 801 0 l 1092 0 l 1342 600 "},"ẁ":{"ha":1352,"o":"m 870 800 l 481 880 l 481 740 l 870 660 m 1072 600 l 933 222 l 801 600 l 551 600 l 419 222 l 280 600 l 10 600 l 260 0 l 551 0 l 676 313 l 801 0 l 1092 0 l 1342 600 "},"x":{"ha":912,"o":"m 10 0 l 320 0 l 456 175 l 592 0 l 902 0 l 626 300 l 902 600 l 592 600 l 456 425 l 320 600 l 10 600 l 286 300 "},"y":{"ha":881,"o":"m 611 600 l 444 183 l 270 600 l 10 600 l 260 0 l 370 0 l 270 -250 l 530 -250 l 871 600 "},"ý":{"ha":881,"o":"m 635 880 l 246 800 l 246 660 l 635 740 m 611 600 l 444 183 l 270 600 l 10 600 l 260 0 l 370 0 l 270 -250 l 530 -250 l 871 600 "},"ŷ":{"ha":881,"o":"m 648 660 l 648 800 l 441 880 l 234 800 l 234 660 l 441 740 m 611 600 l 444 183 l 270 600 l 10 600 l 260 0 l 370 0 l 270 -250 l 530 -250 l 871 600 "},"ÿ":{"ha":881,"o":"m 411 850 l 211 850 l 211 670 l 411 670 m 671 850 l 471 850 l 471 670 l 671 670 m 611 600 l 444 183 l 270 600 l 10 600 l 260 0 l 370 0 l 270 -250 l 530 -250 l 871 600 "},"ỳ":{"ha":881,"o":"m 635 800 l 246 880 l 246 740 l 635 660 m 611 600 l 444 183 l 270 600 l 10 600 l 260 0 l 370 0 l 270 -250 l 530 -250 l 871 600 "},"z":{"ha":734,"o":"m 714 600 l 20 600 l 20 400 l 364 400 l 20 200 l 20 0 l 714 0 l 714 200 l 370 200 l 714 400 "},"ź":{"ha":734,"o":"m 561 880 l 172 800 l 172 660 l 561 740 m 714 600 l 20 600 l 20 400 l 364 400 l 20 200 l 20 0 l 714 0 l 714 200 l 370 200 l 714 400 "},"ž":{"ha":734,"o":"m 573 742 l 573 882 l 366 802 l 159 882 l 159 742 l 366 662 m 714 600 l 20 600 l 20 400 l 364 400 l 20 200 l 20 0 l 714 0 l 714 200 l 370 200 l 714 400 "},"ż":{"ha":734,"o":"m 487 850 l 247 850 l 247 670 l 487 670 m 714 600 l 20 600 l 20 400 l 364 400 l 20 200 l 20 0 l 714 0 l 714 200 l 370 200 l 714 400 "},"⁄":{"ha":550,"o":"m 530 720 l 280 720 l 20 -150 l 270 -150 "},"*":{"ha":554,"o":"m 20 524 l 100 386 l 217 476 l 197 360 l 357 360 l 337 476 l 454 386 l 534 524 l 397 580 l 534 636 l 454 774 l 337 684 l 357 800 l 197 800 l 217 684 l 100 774 l 20 636 l 157 580 "},"\\":{"ha":550,"o":"m 20 720 l 280 -150 l 530 -150 l 270 720 "},"·":{"ha":280,"o":"m 20 410 l 20 230 l 260 230 l 260 410 "},"•":{"ha":453,"o":"m 227 174 b 367 174 433 220 433 321 b 433 421 367 467 227 467 b 86 467 20 421 20 321 b 20 220 86 174 227 174 "},":":{"ha":280,"o":"m 20 480 l 20 300 l 260 300 l 260 480 m 20 180 l 20 0 l 260 0 l 260 180 "},",":{"ha":280,"o":"m 20 180 l 20 0 l 108 0 l 40 -220 l 147 -220 l 260 0 l 260 180 "},"…":{"ha":820,"o":"m 20 180 l 20 0 l 260 0 l 260 180 m 290 180 l 290 0 l 530 0 l 530 180 m 560 180 l 560 0 l 800 0 l 800 180 "},"!":{"ha":300,"o":"m 280 700 l 20 700 l 30 240 l 270 240 m 30 180 l 30 0 l 270 0 l 270 180 "},"¡":{"ha":300,"o":"m 30 420 l 270 420 l 270 600 l 30 600 m 280 -100 l 270 360 l 30 360 l 20 -100 "},"#":{"ha":1255,"o":"m 1215 380 l 1215 580 l 1073 580 l 1115 720 l 865 720 l 823 580 l 608 580 l 650 720 l 400 720 l 358 580 l 140 580 l 140 380 l 298 380 l 251 220 l 40 220 l 40 20 l 191 20 l 140 -150 l 390 -150 l 441 20 l 656 20 l 605 -150 l 855 -150 l 906 20 l 1115 20 l 1115 220 l 966 220 l 1013 380 m 716 220 l 501 220 l 548 380 l 763 380 "},".":{"ha":280,"o":"m 20 180 l 20 0 l 260 0 l 260 180 "},"?":{"ha":794,"o":"m 481 240 b 521 338 774 303 774 500 b 774 664 633 710 407 710 b 184 710 20 664 20 430 l 280 430 b 280 490 340 490 417 490 b 489 490 514 480 514 448 b 514 357 241 447 241 240 m 241 180 l 241 0 l 481 0 l 481 180 "},"¿":{"ha":794,"o":"m 553 420 l 553 600 l 313 600 l 313 420 m 313 360 b 273 262 20 297 20 100 b 20 -64 161 -110 387 -110 b 610 -110 774 -64 774 170 l 514 170 b 514 110 454 110 377 110 b 305 110 280 120 280 152 b 280 243 553 153 553 360 "},"\"":{"ha":600,"o":"m 280 720 l 20 720 l 40 400 l 260 400 m 580 720 l 320 720 l 340 400 l 560 400 "},"'":{"ha":300,"o":"m 280 720 l 20 720 l 40 400 l 260 400 "},";":{"ha":280,"o":"m 20 480 l 20 300 l 260 300 l 260 480 m 20 0 l 108 0 l 40 -220 l 147 -220 l 260 0 l 260 180 l 20 180 "},"/":{"ha":550,"o":"m 530 720 l 280 720 l 20 -150 l 270 -150 "},"_":{"ha":1080,"o":"m 40 -40 l 40 -220 l 1040 -220 l 1040 -40 "},"{":{"ha":610,"o":"m 20 181 b 108 181 168 181 168 81 b 168 -139 217 -200 590 -200 l 590 20 b 420 20 354 40 354 151 b 354 271 263 281 224 281 l 224 321 b 263 321 354 331 354 451 b 354 560 420 580 590 580 l 590 800 b 232 800 168 741 168 521 b 168 421 108 421 20 421 "},"}":{"ha":610,"o":"m 590 181 l 590 421 b 502 421 442 421 442 521 b 442 741 378 800 20 800 l 20 580 b 190 580 256 560 256 451 b 256 331 347 321 386 321 l 386 281 b 347 281 256 271 256 151 b 256 40 190 20 20 20 l 20 -200 b 393 -200 442 -139 442 81 b 442 181 502 181 590 181 "},"[":{"ha":610,"o":"m 590 580 l 590 800 l 20 800 l 20 -200 l 590 -200 l 590 20 l 280 20 l 280 580 "},"]":{"ha":610,"o":"m 590 800 l 20 800 l 20 580 l 330 580 l 330 20 l 20 20 l 20 -200 l 590 -200 "},"(":{"ha":610,"o":"m 20 301 b 20 -83 152 -200 590 -200 l 590 20 b 307 20 280 86 280 301 b 280 515 306 580 590 580 l 590 800 b 152 800 20 684 20 301 "},")":{"ha":610,"o":"m 590 301 b 590 684 458 800 20 800 l 20 580 b 304 580 330 515 330 301 b 330 86 303 20 20 20 l 20 -200 b 458 -200 590 -83 590 301 "},"—":{"ha":1280,"o":"m 40 440 l 40 240 l 1240 240 l 1240 440 "},"–":{"ha":1080,"o":"m 40 440 l 40 240 l 1040 240 l 1040 440 "},"-":{"ha":880,"o":"m 40 440 l 40 240 l 840 240 l 840 440 "},"«":{"ha":1040,"o":"m 280 600 l 20 300 l 280 0 l 610 0 l 350 300 l 610 600 m 690 600 l 430 300 l 690 0 l 1020 0 l 760 300 l 1020 600 "},"»":{"ha":1040,"o":"m 350 600 l 20 600 l 280 300 l 20 0 l 350 0 l 610 300 m 760 600 l 430 600 l 690 300 l 430 0 l 760 0 l 1020 300 "},"‹":{"ha":630,"o":"m 280 600 l 20 300 l 280 0 l 610 0 l 350 300 l 610 600 "},"›":{"ha":630,"o":"m 350 600 l 20 600 l 280 300 l 20 0 l 350 0 l 610 300 "},"„":{"ha":560,"o":"m 20 0 l 108 0 l 40 -220 l 147 -220 l 260 0 l 260 180 l 20 180 m 300 180 l 300 0 l 388 0 l 320 -220 l 427 -220 l 540 0 l 540 180 "},"“":{"ha":600,"o":"m 10 400 l 250 400 l 290 720 l 80 720 m 290 400 l 530 400 l 570 720 l 360 720 "},"”":{"ha":600,"o":"m 310 720 l 70 720 l 30 400 l 240 400 m 590 720 l 350 720 l 310 400 l 520 400 "},"‘":{"ha":320,"o":"m 10 400 l 250 400 l 290 720 l 80 720 "},"’":{"ha":340,"o":"m 310 720 l 70 720 l 30 400 l 240 400 "},"‚":{"ha":280,"o":"m 20 180 l 20 0 l 108 0 l 40 -220 l 147 -220 l 260 0 l 260 180 "}," ":{"ha":400,"o":""},"¢":{"ha":894,"o":"m 517 244 l 517 456 b 564 448 596 431 609 395 l 854 395 b 836 565 714 644 517 658 l 517 800 l 397 800 l 397 659 b 173 647 40 557 40 350 b 40 143 173 53 397 41 l 397 -100 l 517 -100 l 517 42 b 714 56 836 135 854 305 l 609 305 b 596 269 564 252 517 244 m 280 350 b 280 423 322 450 397 458 l 397 242 b 322 250 280 277 280 350 "},"¤":{"ha":896,"o":"m 856 350 b 856 451 825 524 767 574 l 854 661 l 769 746 l 656 633 b 598 651 528 660 448 660 b 375 660 311 653 256 637 l 147 746 l 62 661 l 141 582 b 75 533 40 457 40 350 b 40 243 75 167 141 118 l 62 39 l 147 -46 l 256 63 b 311 47 375 40 448 40 b 528 40 598 49 656 67 l 769 -46 l 854 39 l 767 126 b 825 176 856 249 856 350 m 280 350 b 280 438 341 460 448 460 b 555 460 616 438 616 350 b 616 262 555 240 448 240 b 341 240 280 262 280 350 "},"$":{"ha":974,"o":"m 934 232 b 934 399 791 430 556 442 l 556 507 b 615 502 644 491 644 465 l 904 465 b 904 626 780 696 556 708 l 556 800 l 436 800 l 436 709 b 186 703 50 636 50 490 b 50 336 158 281 436 267 l 436 191 b 324 197 300 218 300 247 l 40 247 b 40 52 181 -3 436 -9 l 436 -100 l 556 -100 l 556 -9 b 800 -1 934 55 934 232 m 310 477 b 310 502 332 509 436 510 l 436 447 b 329 451 310 453 310 477 m 556 191 l 556 263 b 658 258 674 251 674 226 b 674 204 657 193 556 191 "},"€":{"ha":820,"o":"m 523 590 b 597 590 670 580 780 560 l 780 780 b 670 800 597 810 496 810 b 271 810 162 706 130 501 l 40 501 l 40 381 l 120 381 b 120 371 120 361 120 351 l 120 321 l 40 321 l 40 201 l 130 201 b 161 -11 269 -110 496 -110 b 597 -110 670 -100 780 -80 l 780 140 b 670 120 597 110 523 110 b 444 110 408 142 392 201 l 664 201 l 664 321 l 380 321 b 380 331 380 341 380 351 l 380 381 l 664 381 l 664 501 l 393 501 b 409 559 445 590 523 590 "},"£":{"ha":820,"o":"m 543 590 b 617 590 680 580 780 560 l 780 780 b 670 800 597 810 496 810 b 206 810 113 689 148 441 l 40 441 l 40 321 l 162 321 b 166 211 127 189 40 120 l 40 -100 l 780 -100 l 780 120 l 300 120 b 381 174 424 212 420 321 l 664 321 l 664 441 l 406 441 b 395 536 425 590 543 590 "},"¥":{"ha":1052,"o":"m 1012 800 l 712 800 l 526 540 l 340 800 l 40 800 l 358 380 l 135 380 l 135 260 l 396 260 l 396 200 l 135 200 l 135 80 l 396 80 l 396 -100 l 656 -100 l 656 80 l 919 80 l 919 200 l 656 200 l 656 260 l 919 260 l 919 380 l 694 380 "},"+":{"ha":880,"o":"m 840 440 l 540 440 l 540 680 l 300 680 l 300 440 l 40 440 l 40 240 l 300 240 l 300 0 l 540 0 l 540 240 l 840 240 "},"−":{"ha":880,"o":"m 40 440 l 40 240 l 840 240 l 840 440 "},"×":{"ha":873,"o":"m 833 444 l 733 617 l 437 446 l 140 617 l 40 444 l 237 330 l 41 217 l 141 44 l 437 215 l 732 44 l 832 217 l 636 330 "},"÷":{"ha":880,"o":"m 320 680 l 320 500 l 560 500 l 560 680 m 40 440 l 40 240 l 840 240 l 840 440 m 320 180 l 320 0 l 560 0 l 560 180 "},"=":{"ha":880,"o":"m 40 600 l 40 400 l 840 400 l 840 600 m 40 280 l 40 80 l 840 80 l 840 280 "},"≠":{"ha":880,"o":"m 840 400 l 840 600 l 643 600 l 695 775 l 445 775 l 393 600 l 40 600 l 40 400 l 333 400 l 297 280 l 40 280 l 40 80 l 237 80 l 185 -95 l 435 -95 l 487 80 l 840 80 l 840 280 l 547 280 l 583 400 "},">":{"ha":790,"o":"m 40 600 l 40 400 l 573 340 l 40 280 l 40 80 l 750 180 l 750 500 "},"<":{"ha":790,"o":"m 750 600 l 40 500 l 40 180 l 750 80 l 750 280 l 218 340 l 750 400 "},"≥":{"ha":790,"o":"m 40 700 l 40 500 l 513 470 l 40 440 l 40 240 l 750 330 l 750 610 m 40 0 l 750 0 l 750 200 l 40 200 "},"≤":{"ha":790,"o":"m 750 700 l 40 610 l 40 330 l 750 240 l 750 440 l 277 470 l 750 500 m 40 0 l 750 0 l 750 200 l 40 200 "},"±":{"ha":880,"o":"m 540 570 l 540 700 l 300 700 l 300 570 l 40 570 l 40 370 l 300 370 l 300 240 l 540 240 l 540 370 l 840 370 l 840 570 m 40 0 l 840 0 l 840 200 l 40 200 "},"≈":{"ha":880,"o":"m 40 380 l 260 380 b 260 460 293 480 340 480 b 453 480 487 380 620 380 b 787 380 840 500 840 700 l 620 700 b 620 620 587 600 540 600 b 427 600 393 700 260 700 b 93 700 40 580 40 380 m 40 0 l 260 0 b 260 80 293 100 340 100 b 453 100 487 0 620 0 b 787 0 840 120 840 320 l 620 320 b 620 240 587 220 540 220 b 427 220 393 320 260 320 b 93 320 40 200 40 0 "},"~":{"ha":880,"o":"m 40 180 l 260 180 b 260 260 293 280 340 280 b 453 280 487 180 620 180 b 787 180 840 300 840 500 l 620 500 b 620 420 587 400 540 400 b 427 400 393 500 260 500 b 93 500 40 380 40 180 "},"¬":{"ha":880,"o":"m 840 440 l 40 440 l 40 240 l 600 240 l 600 60 l 840 60 "},"∅":{"ha":1140,"o":"m 1100 739 l 959 880 l 834 755 b 762 790 674 810 571 810 b 243 810 68 610 68 351 b 68 246 97 150 153 74 l 40 -39 l 181 -180 l 307 -54 b 379 -90 467 -110 571 -110 b 900 -110 1073 92 1073 351 b 1073 456 1045 551 989 628 m 308 351 b 308 518 392 610 571 610 b 611 610 645 606 676 597 l 323 244 b 313 275 308 311 308 351 m 833 351 b 833 183 749 90 571 90 b 531 90 496 95 465 104 l 819 458 b 828 427 833 391 833 351 "},"∞":{"ha":1263,"o":"m 40 299 b 40 124 139 20 329 20 b 458 20 542 71 631 192 b 720 71 805 20 934 20 b 1124 20 1223 124 1223 299 b 1223 469 1115 582 934 582 b 805 582 721 530 632 408 b 543 530 458 582 329 582 b 148 582 40 469 40 299 m 280 299 b 280 349 306 382 369 382 b 417 382 450 362 499 300 b 451 239 418 220 369 220 b 296 220 280 246 280 299 m 764 299 b 813 362 846 382 894 382 b 957 382 983 349 983 299 b 983 246 967 220 894 220 b 844 220 811 239 764 299 "},"∫":{"ha":953,"o":"m 40 -150 b 239 -150 466 -150 564 198 l 639 452 b 687 600 822 600 913 600 l 913 800 b 714 800 487 800 389 452 l 314 198 b 266 50 131 50 40 50 "},"∏":{"ha":1263,"o":"m 1223 720 l 40 720 l 40 480 l 240 480 l 240 -150 l 480 -150 l 480 480 l 784 480 l 784 -150 l 1024 -150 l 1024 480 l 1223 480 "},"∑":{"ha":820,"o":"m 780 800 l 40 800 l 40 600 l 320 325 l 40 50 l 40 -150 l 780 -150 l 780 50 l 340 50 l 620 325 l 340 600 l 780 600 "},"√":{"ha":1310,"o":"m 1270 800 l 843 800 l 578 0 l 409 351 l 40 351 l 40 151 l 252 151 l 387 -150 l 769 -150 l 1024 600 l 1270 600 "},"∂":{"ha":943,"o":"m 260 800 l 231 600 b 460 582 622 491 656 317 b 582 374 487 420 361 420 b 137 420 40 303 40 138 b 40 -70 193 -150 432 -150 b 671 -150 903 -43 903 246 b 903 580 603 780 260 800 m 432 50 b 318 50 280 83 280 138 b 280 199 325 220 404 220 b 460 220 553 202 631 130 b 592 75 521 50 432 50 "},"%":{"ha":1644,"o":"m 345 259 b 574 259 651 382 651 535 b 651 687 574 810 345 810 b 117 810 40 687 40 535 b 40 382 117 259 345 259 m 1077 800 l 827 800 l 567 -70 l 817 -70 m 345 459 b 296 459 280 466 280 535 b 280 604 296 610 345 610 b 395 610 411 604 411 535 b 411 466 395 459 345 459 m 1298 -80 b 1527 -80 1604 43 1604 196 b 1604 348 1527 471 1298 471 b 1070 471 993 348 993 196 b 993 43 1070 -80 1298 -80 m 1298 120 b 1249 120 1233 127 1233 196 b 1233 265 1249 271 1298 271 b 1348 271 1364 265 1364 196 b 1364 127 1348 120 1298 120 "},"‰":{"ha":2315,"o":"m 345 259 b 574 259 651 382 651 535 b 651 687 574 810 345 810 b 117 810 40 687 40 535 b 40 382 117 259 345 259 m 1077 800 l 827 800 l 567 -70 l 817 -70 m 345 459 b 296 459 280 466 280 535 b 280 604 296 610 345 610 b 395 610 411 604 411 535 b 411 466 395 459 345 459 m 1298 -80 b 1527 -80 1604 43 1604 196 b 1604 348 1527 471 1298 471 b 1070 471 993 348 993 196 b 993 43 1070 -80 1298 -80 m 1969 -80 b 2198 -80 2275 43 2275 196 b 2275 348 2198 471 1969 471 b 1741 471 1664 348 1664 196 b 1664 43 1741 -80 1969 -80 m 1298 120 b 1249 120 1233 127 1233 196 b 1233 265 1249 271 1298 271 b 1348 271 1364 265 1364 196 b 1364 127 1348 120 1298 120 m 1969 120 b 1920 120 1904 127 1904 196 b 1904 265 1920 271 1969 271 b 2019 271 2035 265 2035 196 b 2035 127 2019 120 1969 120 "},"↑":{"ha":1085,"o":"m 543 -110 b 872 -110 1045 92 1045 351 b 1045 610 872 810 543 810 b 215 810 40 610 40 351 b 40 92 215 -110 543 -110 m 618 30 l 468 30 l 468 398 l 360 281 l 256 406 l 542 690 l 830 406 l 726 281 l 618 398 "},"↗":{"ha":1085,"o":"m 543 -110 b 872 -110 1045 92 1045 351 b 1045 610 872 810 543 810 b 215 810 40 610 40 351 b 40 92 215 -110 543 -110 m 378 80 l 272 186 l 532 446 l 373 440 l 388 601 l 791 600 l 793 196 l 632 181 l 638 340 "},"→":{"ha":1085,"o":"m 543 -110 b 872 -110 1045 92 1045 351 b 1045 610 872 810 543 810 b 215 810 40 610 40 351 b 40 92 215 -110 543 -110 m 225 275 l 225 425 l 593 425 l 476 533 l 601 637 l 885 351 l 601 63 l 476 167 l 593 275 "},"↘":{"ha":1085,"o":"m 543 810 b 215 810 40 608 40 349 b 40 90 215 -110 543 -110 b 872 -110 1045 90 1045 349 b 1045 608 872 810 543 810 m 378 620 l 638 360 l 632 519 l 793 504 l 791 100 l 388 99 l 373 260 l 532 254 l 272 514 "},"↓":{"ha":1085,"o":"m 543 810 b 215 810 40 608 40 349 b 40 90 215 -110 543 -110 b 872 -110 1045 90 1045 349 b 1045 608 872 810 543 810 m 618 670 l 618 302 l 726 419 l 830 294 l 542 10 l 256 294 l 360 419 l 468 302 l 468 670 "},"↙":{"ha":1085,"o":"m 542 810 b 213 810 40 608 40 349 b 40 90 213 -110 542 -110 b 870 -110 1045 90 1045 349 b 1045 608 870 810 542 810 m 707 620 l 813 514 l 553 254 l 712 260 l 697 99 l 294 100 l 292 504 l 453 519 l 447 360 "},"←":{"ha":1085,"o":"m 542 -110 b 870 -110 1045 92 1045 351 b 1045 610 870 810 542 810 b 213 810 40 610 40 351 b 40 92 213 -110 542 -110 m 860 275 l 492 275 l 609 167 l 484 63 l 200 351 l 484 637 l 609 533 l 492 425 l 860 425 "},"↖":{"ha":1085,"o":"m 542 -110 b 870 -110 1045 92 1045 351 b 1045 610 870 810 542 810 b 213 810 40 610 40 351 b 40 92 213 -110 542 -110 m 707 80 l 447 340 l 453 181 l 292 196 l 294 600 l 697 601 l 712 440 l 553 446 l 813 186 "},"↔":{"ha":1085,"o":"m 543 -110 b 872 -110 1045 92 1045 351 b 1045 610 872 810 543 810 b 215 810 40 610 40 351 b 40 92 215 -110 543 -110 m 929 349 l 715 63 l 590 167 l 677 275 l 411 274 l 498 167 l 373 63 l 157 348 l 373 637 l 498 533 l 411 425 l 677 425 l 590 533 l 715 637 "},"↕":{"ha":1085,"o":"m 543 -110 b 872 -110 1045 92 1045 351 b 1045 610 872 810 543 810 b 215 810 40 610 40 351 b 40 92 215 -110 543 -110 m 544 726 l 830 512 l 726 387 l 618 474 l 618 228 l 726 315 l 830 190 l 544 -26 l 256 190 l 360 315 l 468 228 l 468 474 l 360 387 l 256 512 "},"◊":{"ha":881,"o":"m 601 800 l 281 800 l 40 350 l 281 -100 l 601 -100 l 841 350 m 441 13 l 260 350 l 441 688 l 620 350 "},"@":{"ha":1187,"o":"m 639 810 b 266 810 40 620 40 268 b 40 -157 251 -288 867 -288 l 877 -88 b 441 -88 280 -51 280 268 b 280 505 406 610 649 610 b 772 610 894 592 905 460 b 857 507 783 532 685 530 b 530 528 391 482 391 260 b 391 38 530 -12 685 -10 b 784 -8 858 17 907 64 l 907 0 l 1147 0 l 1147 400 b 1147 685 1006 810 639 810 m 769 190 b 692 190 631 192 631 260 b 631 328 692 330 769 330 b 841 330 900 328 906 271 l 906 249 b 900 192 842 190 769 190 "},"&":{"ha":1055,"o":"m 1035 162 b 989 182 946 200 906 217 b 931 249 954 284 976 323 l 762 405 b 740 371 717 340 693 313 b 642 337 599 359 564 377 b 698 420 777 471 777 550 b 777 655 645 710 477 710 b 278 710 173 655 173 540 b 173 486 195 439 243 390 b 138 369 20 329 20 193 b 20 63 143 -10 393 -10 b 545 -10 664 20 762 83 b 816 57 873 29 935 0 m 477 550 b 520 550 537 534 537 506 b 537 476 512 455 464 438 b 425 467 413 488 413 506 b 413 534 434 550 477 550 m 411 190 b 298 190 260 215 260 250 b 260 278 286 296 336 314 b 385 280 447 244 522 204 b 489 195 452 190 411 190 "},"¶":{"ha":937,"o":"m 339 720 b 209 720 40 720 40 500 b 40 280 209 280 339 280 l 339 -150 l 579 -150 l 579 720 m 657 720 l 657 -150 l 897 -150 l 897 720 "},"§":{"ha":840,"o":"m 725 200 b 767 260 780 311 780 352 b 780 465 716 541 457 551 b 305 557 280 562 280 607 b 280 650 315 650 417 650 b 504 650 544 650 544 608 l 784 608 b 784 781 629 810 427 810 b 225 810 40 781 40 590 b 40 533 65 486 116 451 b 73 391 60 340 60 298 b 60 185 124 109 383 99 b 535 93 560 88 560 43 b 560 0 525 0 423 0 b 336 0 296 0 296 42 l 56 42 b 56 -131 211 -160 413 -160 b 615 -160 800 -131 800 60 b 800 118 776 165 725 200 m 403 279 b 299 285 219 295 276 390 l 274 391 b 321 381 376 374 437 371 b 541 365 621 355 564 260 b 518 269 464 275 403 279 "},"©":{"ha":1085,"o":"m 543 -110 b 872 -110 1045 92 1045 351 b 1045 610 872 810 543 810 b 215 810 40 610 40 351 b 40 92 215 -110 543 -110 m 543 10 b 305 10 160 123 160 351 b 160 578 304 690 543 690 b 782 690 925 579 925 351 b 925 123 781 10 543 10 m 253 350 b 253 192 362 129 544 129 b 713 129 819 183 833 318 l 658 318 b 645 282 605 272 544 272 b 467 272 424 287 424 350 b 424 413 467 428 544 428 b 605 428 645 418 658 382 l 833 382 b 819 517 713 571 544 571 b 362 571 253 508 253 350 "},"®":{"ha":752,"o":"m 376 810 b 151 810 40 684 40 508 b 40 332 151 206 376 206 b 601 206 712 332 712 508 b 712 684 601 810 376 810 m 376 326 b 231 326 160 387 160 508 b 160 629 231 690 376 690 b 521 690 592 629 592 508 b 592 387 521 326 376 326 m 521 534 b 521 585 486 621 434 621 l 255 621 l 255 394 l 340 394 l 340 447 l 390 447 l 421 394 l 521 394 l 481 459 b 506 474 521 501 521 534 m 340 550 l 418 550 b 426 550 437 550 437 534 b 437 519 426 519 418 519 l 340 519 "},"™":{"ha":1038,"o":"m 456 799 l 40 799 l 40 693 l 185 693 l 185 461 l 311 461 l 311 693 l 456 693 m 998 799 l 843 799 l 739 606 l 634 799 l 480 799 l 480 461 l 605 461 l 605 623 l 698 461 l 780 461 l 872 621 l 872 461 l 998 461 "},"°":{"ha":691,"o":"m 345 259 b 574 259 651 382 651 535 b 651 687 574 810 345 810 b 117 810 40 687 40 535 b 40 382 117 259 345 259 m 345 459 b 296 459 280 466 280 535 b 280 604 296 610 345 610 b 395 610 411 604 411 535 b 411 466 395 459 345 459 "},"|":{"ha":320,"o":"m 40 720 l 40 -150 l 280 -150 l 280 720 "},"¦":{"ha":320,"o":"m 40 720 l 40 375 l 280 375 l 280 720 m 40 195 l 40 -150 l 280 -150 l 280 195 "},"†":{"ha":880,"o":"m 840 520 l 560 520 l 560 720 l 320 720 l 320 520 l 40 520 l 40 320 l 320 320 l 320 -150 l 560 -150 l 560 320 l 840 320 "},"‡":{"ha":880,"o":"m 840 320 l 840 520 l 560 520 l 560 720 l 320 720 l 320 520 l 40 520 l 40 320 l 320 320 l 320 250 l 40 250 l 40 50 l 320 50 l 320 -150 l 560 -150 l 560 50 l 840 50 l 840 250 l 560 250 l 560 320 "},"^":{"ha":881,"o":"m 841 350 l 601 800 l 281 800 l 40 350 l 260 350 l 441 688 l 620 350 "},"̈":{"ha":0,"o":"m -500 850 l -500 670 l -300 670 l -300 850 m -240 850 l -240 670 l -40 670 l -40 850 "},"̇":{"ha":0,"o":"m -280 850 l -280 670 l -40 670 l -40 850 "},"̀":{"ha":0,"o":"m -40 800 l -429 880 l -429 740 l -40 660 "},"́":{"ha":0,"o":"m -429 800 l -429 660 l -40 740 l -40 880 "},"̋":{"ha":0,"o":"m -514 810 l -514 670 l -307 750 l -307 890 m -247 810 l -247 670 l -40 750 l -40 890 "},"̂":{"ha":0,"o":"m -247 880 l -454 800 l -454 660 l -247 740 l -40 660 l -40 800 "},"̌":{"ha":0,"o":"m -248 802 l -455 882 l -455 742 l -248 662 l -41 742 l -41 882 "},"̆":{"ha":0,"o":"m -494 870 b -494 690 -391 650 -267 650 b -143 650 -40 690 -40 870 l -160 870 b -160 800 -193 770 -267 770 b -341 770 -374 800 -374 870 "},"̊":{"ha":0,"o":"m -250 660 b -82 660 -40 709 -40 792 b -40 875 -82 924 -250 924 b -418 924 -460 875 -460 792 b -460 709 -418 660 -250 660 m -250 750 b -298 750 -340 752 -340 792 b -340 832 -298 834 -250 834 b -202 834 -160 832 -160 792 b -160 752 -202 750 -250 750 "},"̃":{"ha":0,"o":"m -620 670 l -440 670 b -440 710 -427 730 -390 730 b -307 730 -283 660 -180 660 b -73 660 -40 770 -40 870 l -220 870 b -220 830 -233 810 -270 810 b -353 810 -377 880 -480 880 b -587 880 -620 770 -620 670 "},"̄":{"ha":0,"o":"m -509 810 l -509 670 l -40 670 l -40 810 "},"̒":{"ha":0,"o":"m -40 700 l -40 820 l -108 820 l -40 930 l -137 930 l -240 820 l -240 700 "},"̦":{"ha":0,"o":"m -240 -50 l -240 -170 l -172 -170 l -240 -280 l -143 -280 l -40 -170 l -40 -50 "},"̧":{"ha":0,"o":"m -215 -46 l -196 0 l -324 0 l -343 -35 l -284 -93 b -206 -75 -180 -83 -180 -107 b -180 -139 -225 -158 -356 -139 l -356 -230 b -202 -249 -40 -230 -40 -116 b -40 -20 -154 -28 -215 -46 "},"̨":{"ha":0,"o":"m -40 -90 b -123 -90 -188 -90 -188 -52 b -188 -31 -168 -17 -147 0 l -254 0 b -305 -33 -328 -72 -328 -113 b -328 -211 -227 -230 -40 -230 "},"̵":{"ha":0,"o":"m -520 410 l -520 270 l -40 270 l -40 410 "},"̶":{"ha":0,"o":"m -1040 410 l -1040 270 l -40 270 l -40 410 "},"̷":{"ha":0,"o":"m -20 720 l -270 720 l -530 -150 l -280 -150 "},"̸":{"ha":0,"o":"m -60 720 l -230 720 l -490 -150 l -320 -150 "},"´":{"ha":469,"o":"m 40 800 l 40 660 l 429 740 l 429 880 "},"˘":{"ha":534,"o":"m 40 870 b 40 690 143 650 267 650 b 391 650 494 690 494 870 l 374 870 b 374 800 341 770 267 770 b 193 770 160 800 160 870 "},"ˇ":{"ha":494,"o":"m 246 802 l 39 882 l 39 742 l 246 662 l 453 742 l 453 882 "},"¸":{"ha":396,"o":"m 181 -46 l 200 0 l 72 0 l 53 -35 l 112 -93 b 190 -75 216 -83 216 -107 b 216 -139 171 -158 40 -139 l 40 -230 b 194 -249 356 -230 356 -116 b 356 -20 242 -28 181 -46 "},"ˆ":{"ha":494,"o":"m 247 880 l 40 800 l 40 660 l 247 740 l 454 660 l 454 800 "},"¨":{"ha":540,"o":"m 40 850 l 40 670 l 240 670 l 240 850 m 300 850 l 300 670 l 500 670 l 500 850 "},"˙":{"ha":320,"o":"m 40 850 l 40 670 l 280 670 l 280 850 "},"`":{"ha":469,"o":"m 429 800 l 40 880 l 40 740 l 429 660 "},"˝":{"ha":554,"o":"m 40 810 l 40 670 l 247 750 l 247 890 m 307 810 l 307 670 l 514 750 l 514 890 "},"¯":{"ha":549,"o":"m 40 810 l 40 670 l 509 670 l 509 810 "},"˛":{"ha":368,"o":"m 328 -90 b 245 -90 180 -90 180 -52 b 180 -31 200 -17 221 0 l 114 0 b 63 -33 40 -72 40 -113 b 40 -211 141 -230 328 -230 "},"˚":{"ha":500,"o":"m 250 660 b 418 660 460 709 460 792 b 460 875 418 924 250 924 b 82 924 40 875 40 792 b 40 709 82 660 250 660 m 250 750 b 202 750 160 752 160 792 b 160 832 202 834 250 834 b 298 834 340 832 340 792 b 340 752 298 750 250 750 "},"˜":{"ha":660,"o":"m 40 670 l 220 670 b 220 710 233 730 270 730 b 353 730 377 660 480 660 b 587 660 620 770 620 870 l 440 870 b 440 830 427 810 390 810 b 307 810 283 880 180 880 b 73 880 40 770 40 670 "}}}
